<?xml version="1.0" encoding="UTF-8" standalone="no"?>
<svg
   width="48"
   height="48"
   id="business"
   version="1.1"
   sodipodi:docname="reactive-graph-black-white.svg"
   inkscape:version="1.2.2 (b0a8486541, 2022-12-01)"
   xmlns:inkscape="http://www.inkscape.org/namespaces/inkscape"
   xmlns:sodipodi="http://sodipodi.sourceforge.net/DTD/sodipodi-0.dtd"
   xmlns="http://www.w3.org/2000/svg"
   xmlns:svg="http://www.w3.org/2000/svg">
  <defs
     id="defs60" />
  <sodipodi:namedview
     id="namedview58"
     pagecolor="#505050"
     bordercolor="#ffffff"
     borderopacity="1"
     inkscape:showpageshadow="0"
     inkscape:pageopacity="0"
     inkscape:pagecheckerboard="1"
     inkscape:deskcolor="#505050"
     showgrid="false"
     inkscape:zoom="20.875"
     inkscape:cx="12.383234"
     inkscape:cy="22.035928"
     inkscape:window-width="2560"
     inkscape:window-height="1403"
     inkscape:window-x="0"
     inkscape:window-y="0"
     inkscape:window-maximized="1"
     inkscape:current-layer="business" />
  <path
     fill-rule="evenodd"
     d="M24 0A24 24 0 0 0 0 24a24 24 0 0 0 24 24 24 24 0 0 0 24-24A24 24 0 0 0 24 0zm5 11c1.375 0 2.5 1.125 2.5 2.5S30.375 16 29 16a2.47 2.47 0 0 1-.908-.178l-2.205 3.674a3.996 3.996 0 0 1 1.955 2.455l6.172-.822C34.01 21.085 34 21.044 34 21c0-1.099.901-2 2-2s2 .901 2 2-.901 2-2 2a2 2 0 0 1-1.668-.906l-6.338.845c0 .021.006.04.006.061 0 1.2-.544 2.268-1.387 3.002l.375.521-.814.582-.389-.546A3.948 3.948 0 0 1 24 27c-1.204 0-2.273-.548-3.008-1.395l-5.531 3.688c.338.485.539 1.073.539 1.707 0 1.651-1.35 3-3 3s-3-1.349-3-3c0-1.65 1.35-3 3-3 .65 0 1.25.215 1.742.57l5.694-3.795A3.939 3.939 0 0 1 20 23c0-.646.169-1.25.443-1.791l-.543-.408.6-.801.504.379A3.976 3.976 0 0 1 24 19c.326 0 .64.049.943.123l2.307-3.846a2.49 2.49 0 0 1-.75-1.777c0-1.375 1.125-2.5 2.5-2.5zm0 1c-.834 0-1.5.666-1.5 1.5S28.166 15 29 15s1.5-.666 1.5-1.5S29.834 12 29 12zm-13 3c1.099 0 2 .901 2 2 0 .341-.095.657-.248.94l.348.261-.6.799-.428-.32c-.31.2-.677.32-1.072.32-1.099 0-2-.901-2-2s.901-2 2-2zm0 1c-.558 0-1 .442-1 1s.442 1 1 1 1-.442 1-1-.442-1-1-1zm2.9 2.8.8.6-.6.801-.8-.6.6-.8zM24 20c-1.663 0-3 1.337-3 3s1.337 3 3 3 3-1.337 3-3-1.337-3-3-3zm12 0c-.558 0-1 .442-1 1s.442 1 1 1 1-.442 1-1-.442-1-1-1zm-8.43 7.338.58.814-.814.58-.58-.812.814-.582zm1.162 1.627.58.814-.812.58-.582-.812.814-.582zM13 29c-1.11 0-2 .89-2 2 0 1.11.89 2 2 2 1.11 0 2-.89 2-2 0-1.11-.89-2-2-2zm16.895 1.592.58.814-.813.582-.582-.814.815-.582zM32.5 32c1.375 0 2.5 1.125 2.5 2.5S33.875 37 32.5 37a2.508 2.508 0 0 1-2.5-2.5c0-.525.166-1.013.445-1.416l-.203-.283.815-.58.119.168A2.47 2.47 0 0 1 32.5 32zm0 1c-.834 0-1.5.666-1.5 1.5s.666 1.5 1.5 1.5 1.5-.666 1.5-1.5-.666-1.5-1.5-1.5z"
     id="path55"
     style="fill:#000000" />
  <path
     style="fill:#000000;stroke-width:0.0479042"
     d="M 23.041916,47.947966 C 18.243126,47.764722 13.603771,46.125504 9.6983837,43.233312 5.4745595,40.105296 2.3285491,35.528603 0.91754261,30.459287 0.30794812,28.2692 0.0476082,26.345448 0.04665378,24.023952 0.04597557,22.374318 0.13003649,21.349945 0.38669025,19.88024 0.9571544,16.613527 2.236049,13.419924 4.0699189,10.682635 7.6373485,5.3577816 13.19535,1.6694344 19.473054,0.46095646 c 0.830679,-0.15990843 1.863044,-0.3002163 2.682635,-0.36459484 0.859206,-0.06749035 2.823655,-0.06778343 3.688622,-5.5032e-4 4.484345,0.34856389 8.839705,1.9809586 12.45509,4.6681844 4.243737,3.1542639 7.370937,7.7034043 8.783056,12.7767173 0.676036,2.428791 0.950333,4.776295 0.862501,7.381443 -0.150609,4.46692 -1.593434,8.835511 -4.164992,12.610778 -3.1192,4.579253 -7.865433,8.001766 -13.19314,9.513585 -1.81463,0.514929 -3.695452,0.824365 -5.365269,0.882707 -0.39521,0.01381 -0.847904,0.03129 -1.005988,0.03884 -0.158084,0.0076 -0.686228,-0.0015 -1.173653,-0.0201 z M 33.301577,36.884294 c 1.178352,-0.393784 1.901954,-1.625505 1.673338,-2.848366 -0.166538,-0.890813 -0.877105,-1.684528 -1.743705,-1.94775 -0.273895,-0.08319 -0.416031,-0.09641 -0.840312,-0.07816 -0.435318,0.01873 -0.563038,0.04414 -0.865687,0.172234 -0.314868,0.133265 -0.361204,0.141817 -0.409621,0.0756 -0.04723,-0.0646 -0.11076,-0.0346 -0.471319,0.222586 -0.229199,0.163485 -0.416247,0.310888 -0.415661,0.327563 5.85e-4,0.01667 0.04062,0.08176 0.08897,0.144636 0.08635,0.112294 0.08545,0.119082 -0.05044,0.383233 -0.280425,0.5451 -0.355197,1.205504 -0.203225,1.794934 0.232086,0.900151 0.977502,1.621571 1.888183,1.827398 0.397593,0.08986 0.949927,0.05961 1.349481,-0.07391 z M 13.700599,33.937391 c 1.05327,-0.247505 1.959711,-1.142477 2.22713,-2.198953 0.09392,-0.371027 0.0926,-1.105792 -0.0026,-1.480027 -0.0412,-0.161886 -0.149861,-0.443285 -0.241463,-0.625331 -0.0916,-0.182045 -0.149509,-0.346516 -0.128681,-0.365491 0.07528,-0.06858 5.379276,-3.590942 5.407261,-3.590942 0.01579,0 0.161449,0.120271 0.323677,0.26727 0.836842,0.758282 1.866599,1.128223 2.944654,1.057871 0.509302,-0.03324 0.887457,-0.120254 1.283235,-0.295285 l 0.258434,-0.114292 0.179767,0.258963 c 0.09887,0.14243 0.197969,0.259781 0.220216,0.260781 0.09364,0.0042 0.845207,-0.583292 0.814349,-0.636581 -0.0179,-0.03092 -0.09361,-0.134764 -0.168225,-0.23077 -0.07462,-0.09601 -0.135674,-0.189991 -0.135674,-0.208853 0,-0.01886 0.111451,-0.155879 0.247669,-0.304483 0.632908,-0.690458 1.000517,-1.517108 1.076997,-2.421866 0.01689,-0.199812 0.04371,-0.362901 0.05961,-0.362421 0.01589,4.79e-4 1.421269,-0.184467 3.123056,-0.410993 l 3.094157,-0.411865 0.283088,0.282467 c 1.145546,1.143034 3.05091,0.592448 3.401388,-0.982886 0.248173,-1.115489 -0.492433,-2.200488 -1.648814,-2.415539 -0.616386,-0.114629 -1.320518,0.126335 -1.775764,0.60769 -0.306315,0.323883 -0.481428,0.693595 -0.548266,1.157536 -0.02792,0.193797 -0.06849,0.352358 -0.09015,0.352358 -0.02166,0 -1.348509,0.172892 -2.948544,0.384205 -1.600036,0.211313 -2.947536,0.389157 -2.994445,0.39521 -0.06534,0.0084 -0.122265,-0.08053 -0.243392,-0.380401 -0.303546,-0.751476 -0.895225,-1.48103 -1.507764,-1.859111 L 25.925193,19.488959 27.006,17.684599 c 0.594443,-0.992398 1.083837,-1.808958 1.087543,-1.814579 0.0037,-0.0056 0.111551,0.02133 0.239659,0.05988 0.268275,0.08074 0.956443,0.0907 1.270256,0.01839 0.639402,-0.147336 1.326329,-0.687892 1.62432,-1.278209 0.677899,-1.34291 0.102412,-2.920548 -1.277333,-3.501676 -1.374606,-0.578964 -3.006433,0.238308 -3.386077,1.695859 -0.19611,0.752921 -0.0015,1.652959 0.478842,2.214082 l 0.172205,0.201183 -1.137727,1.89682 -1.137727,1.896821 -0.29034,-0.03958 c -1.170487,-0.159565 -2.261725,0.132244 -3.158001,0.844481 -0.201129,0.15983 -0.391107,0.331301 -0.422174,0.381047 -0.05332,0.08537 -0.07091,0.07955 -0.313648,-0.103714 -0.146693,-0.110755 -0.273908,-0.175547 -0.296142,-0.150831 -0.206999,0.230104 -0.585065,0.798128 -0.550914,0.82772 0.02384,0.02066 0.14271,0.116804 0.264146,0.213651 l 0.220793,0.176086 -0.156925,0.418924 c -0.351116,0.937335 -0.334872,1.902083 0.04799,2.849944 l 0.113591,0.281223 -2.825426,1.883782 -2.825425,1.883783 -0.271945,-0.1638 c -1.426696,-0.859336 -3.413774,-0.249197 -4.171778,1.280958 -0.9938409,2.00623 0.443196,4.341192 2.678277,4.351784 0.223952,0.0011 0.547305,-0.031 0.718563,-0.07124 z m 16.406025,-2.229464 0.408326,-0.292073 -0.243302,-0.342657 c -0.133817,-0.188462 -0.272384,-0.382969 -0.307927,-0.432237 -0.06099,-0.08455 -0.08787,-0.0728 -0.478283,0.209045 -0.28025,0.202315 -0.405044,0.321076 -0.386946,0.368238 0.04239,0.110466 0.526541,0.779342 0.565028,0.780611 0.01913,6.32e-4 0.218524,-0.130287 0.443104,-0.290927 z m -1.16932,-1.625722 c 0.207152,-0.144015 0.377409,-0.27954 0.378351,-0.301166 0.0017,-0.0383 -0.376287,-0.596062 -0.516624,-0.76241 -0.06544,-0.07757 -0.09148,-0.06812 -0.386693,0.140279 -0.174091,0.122896 -0.364308,0.25986 -0.422705,0.304365 l -0.106175,0.08092 0.294201,0.41473 c 0.16181,0.228102 0.314181,0.40807 0.338603,0.39993 0.02442,-0.0081 0.213891,-0.132632 0.421042,-0.276646 z m -1.197491,-1.605479 c 0.207435,-0.146184 0.388026,-0.283377 0.401312,-0.304875 0.04143,-0.06704 -0.548381,-0.871969 -0.61125,-0.834192 -0.07433,0.04467 -0.715172,0.500367 -0.76932,0.547064 -0.0379,0.03268 0.516859,0.857792 0.576732,0.857792 0.01395,0 0.19509,-0.119605 0.402526,-0.265789 z m -8.29875,-8.674401 c 0.166837,-0.225071 0.296179,-0.414551 0.287426,-0.421068 -0.0088,-0.0065 -0.192486,-0.144815 -0.408295,-0.30733 -0.21581,-0.162516 -0.401821,-0.295484 -0.413358,-0.295484 -0.02893,0 -0.557486,0.705397 -0.587857,0.784544 -0.01516,0.03951 0.126412,0.176636 0.369923,0.358295 0.216967,0.161858 0.406711,0.293381 0.421654,0.292274 0.01494,-0.0011 0.163671,-0.186161 0.330507,-0.411231 z m -2.662001,-0.94769 0.323972,-0.131166 0.185916,0.147247 c 0.102253,0.08099 0.196369,0.147248 0.209145,0.147248 0.02246,0 0.502003,-0.625573 0.583918,-0.761738 0.02823,-0.04693 -0.0065,-0.105398 -0.115431,-0.194297 l -0.155815,-0.12717 0.100604,-0.325719 C 18.320439,16.284635 17.377099,14.994012 16,14.994012 c -0.591212,0 -1.064466,0.203347 -1.465682,0.629773 -0.410828,0.436642 -0.569476,0.882003 -0.536693,1.506614 0.01767,0.336632 0.04762,0.45087 0.197986,0.755113 0.261869,0.529855 0.705316,0.900134 1.277443,1.066667 0.344828,0.100371 0.924016,0.05711 1.306008,-0.09754 z"
     id="path685" />
  <path
     style="fill:#000000;stroke-width:0.0479042"
     d="m 15.617109,17.887761 c -0.35834,-0.155396 -0.575193,-0.487693 -0.575193,-0.881403 0,-0.3195 0.08623,-0.512611 0.325148,-0.728202 0.218539,-0.197198 0.420503,-0.253648 0.782908,-0.218825 0.264378,0.0254 0.417103,0.118805 0.635517,0.388664 0.276128,0.341164 0.217388,0.944973 -0.122798,1.262293 -0.26117,0.243616 -0.715307,0.320699 -1.045582,0.177473 z"
     id="path687" />
  <path
     style="fill:#000000;stroke-width:0.0479042"
     d="m 23.281437,25.888571 c -0.525562,-0.138028 -0.955008,-0.391307 -1.367019,-0.806244 -0.439973,-0.443096 -0.649351,-0.801071 -0.789846,-1.350399 -0.246551,-0.964008 0.009,-1.991 0.676731,-2.719723 0.352185,-0.384348 0.702076,-0.619012 1.207314,-0.809717 0.357288,-0.13486 0.44426,-0.148374 0.967431,-0.150321 0.63288,-0.0024 0.850921,0.04677 1.403346,0.316141 0.458696,0.223672 1.031655,0.804576 1.26682,1.284387 0.33068,0.674692 0.408317,1.378946 0.229214,2.079233 -0.140495,0.549328 -0.349874,0.907303 -0.789846,1.350399 -0.418812,0.421787 -0.84749,0.671504 -1.38906,0.809169 -0.355625,0.0904 -1.065328,0.08893 -1.415085,-0.0029 z"
     id="path689" />
  <path
     style="fill:#000000;stroke-width:0.0479042"
     d="m 28.681891,14.94389 c -0.302226,-0.07456 -0.538402,-0.220787 -0.766707,-0.474717 -0.663895,-0.738411 -0.418183,-1.902649 0.489568,-2.319683 0.318477,-0.146312 0.902681,-0.141872 1.209374,0.0092 0.287054,0.141392 0.576816,0.431154 0.718208,0.718208 0.08986,0.182439 0.110563,0.301787 0.109632,0.63209 -9.75e-4,0.34607 -0.02019,0.443593 -0.128015,0.649746 -0.14909,0.285049 -0.449887,0.571636 -0.727249,0.692892 -0.24668,0.107844 -0.667655,0.150774 -0.904811,0.09227 z"
     id="path691" />
  <path
     style="fill:#000000;stroke-width:0.0479042"
     d="m 35.691477,21.925683 c -0.09065,-0.02891 -0.255459,-0.13988 -0.366253,-0.246606 -0.304671,-0.293485 -0.385955,-0.690188 -0.21644,-1.056323 0.226366,-0.488928 0.772304,-0.719797 1.24006,-0.524404 0.668703,0.279333 0.836371,1.08902 0.3271,1.579607 -0.291702,0.281001 -0.620607,0.363765 -0.984467,0.247726 z"
     id="path693" />
  <path
     style="fill:#000000;stroke-width:0.0479042"
     d="m 32.015284,35.890087 c -0.564367,-0.201683 -0.924516,-0.681054 -0.963075,-1.281885 -0.02986,-0.465286 0.07163,-0.760413 0.376011,-1.093459 0.312605,-0.342041 0.622721,-0.47883 1.082372,-0.477426 0.434862,0.0013 0.783499,0.160164 1.083183,0.493484 0.645225,0.717645 0.41258,1.87524 -0.461954,2.298595 -0.317139,0.153524 -0.785519,0.178984 -1.116537,0.06069 z"
     id="path695" />
  <path
     style="fill:#000000;stroke-width:0.0479042"
     d="m 12.420888,32.891234 c -0.936243,-0.304874 -1.533451,-1.278702 -1.360339,-2.218214 0.241787,-1.31223 1.62285,-2.017771 2.805533,-1.433257 0.566667,0.280062 0.930058,0.751217 1.059978,1.374317 0.18172,0.871534 -0.255839,1.752427 -1.071137,2.156414 -0.28622,0.141823 -0.372544,0.161043 -0.777079,0.173011 -0.290918,0.0086 -0.527912,-0.01025 -0.656956,-0.05227 z"
     id="path697" />
  <path
     style="fill:#ffffff;stroke:#04e762;stroke-width:0.0022994"
     d="m 15.532739,18.921102 c -0.746146,-0.18851 -1.352262,-0.860674 -1.481974,-1.643463 -0.135808,-0.819572 0.339571,-1.680267 1.146952,-2.076608 0.251379,-0.123402 0.321188,-0.135163 0.802283,-0.135163 0.502881,0 0.541651,0.0074 0.848935,0.161593 0.778961,0.390929 1.242487,1.259337 1.096139,2.053597 -0.03185,0.172874 -0.08911,0.374645 -0.127243,0.448382 -0.099,0.191452 -0.08742,0.246345 0.07476,0.354392 0.0791,0.05269 0.133991,0.121745 0.121987,0.153445 -0.012,0.0317 -0.134558,0.208279 -0.272342,0.392398 l -0.250518,0.334762 -0.177902,-0.140901 c -0.09785,-0.0775 -0.199142,-0.140901 -0.2251,-0.140901 -0.02596,0 -0.170402,0.0564 -0.320985,0.125344 -0.305272,0.139758 -0.910236,0.195172 -1.234992,0.113123 z m 0.89881,-0.998466 c 0.645538,-0.293262 0.7887,-1.140953 0.279486,-1.654889 C 16.523891,16.078868 16.314449,16 16,16 15.685551,16 15.476109,16.07887 15.288965,16.267747 14.63773,16.925022 15.080503,18.009872 16,18.009872 c 0.131737,0 0.325933,-0.03926 0.431549,-0.08724 z"
     id="path994" />
  <path
     style="fill:#ffffff;stroke:#04e762;stroke-width:0.0022994"
     d="m 18.706587,19.87416 c -0.171258,-0.132015 -0.318104,-0.258727 -0.326326,-0.281582 -0.01803,-0.05012 0.475173,-0.718327 0.530193,-0.718327 0.02127,0 0.19875,0.120477 0.394388,0.267726 l 0.355706,0.267726 -0.267216,0.355029 c -0.146969,0.195266 -0.29155,0.353775 -0.321292,0.352242 -0.02974,-0.0015 -0.194196,-0.110799 -0.365453,-0.242814 z"
     id="path996" />
  <path
     style="fill:#ffffff;stroke:#04e762;stroke-width:0.0022994"
     d="m 12.287425,33.888571 c -1.038896,-0.272844 -1.913924,-1.155549 -2.17892,-2.198037 -0.29015,-1.141441 0.228653,-2.476828 1.217231,-3.133127 0.571831,-0.379628 0.990701,-0.50825 1.6563,-0.5086 0.614508,-3.36e-4 1.02217,0.104815 1.482009,0.382219 l 0.284403,0.171571 2.841345,-1.894156 c 1.56274,-1.041787 2.841345,-1.913907 2.841345,-1.938046 0,-0.02414 -0.04473,-0.148072 -0.0994,-0.275405 -0.176998,-0.412236 -0.288595,-0.993527 -0.287994,-1.50011 6.99e-4,-0.5878 0.09713,-1.029638 0.356834,-1.634985 l 0.07424,-0.173039 -0.222418,-0.16229 c -0.122331,-0.08926 -0.243432,-0.176498 -0.269115,-0.193864 -0.02606,-0.01762 0.07816,-0.19979 0.235813,-0.412198 l 0.282509,-0.380624 0.253358,0.191287 0.253359,0.191288 0.154524,-0.170131 c 0.432133,-0.475777 1.226622,-0.936496 1.926979,-1.117444 0.390316,-0.100844 1.370401,-0.117861 1.673953,-0.02906 0.103908,0.0304 0.192166,0.05046 0.196128,0.04459 0.004,-0.0059 0.527907,-0.87989 1.16432,-1.942262 l 1.157116,-1.931585 -0.186502,-0.224104 c -1.118121,-1.343554 -0.509369,-3.343616 1.19259,-3.918265 0.412929,-0.139422 1.126353,-0.11936 1.545407,0.04346 1.250825,0.485989 1.911566,1.813073 1.523085,3.059085 -0.234191,0.751144 -0.875244,1.39174 -1.624436,1.623279 -0.378613,0.117011 -1.032067,0.125917 -1.392182,0.01898 -0.139117,-0.04131 -0.259502,-0.06826 -0.267521,-0.05988 -0.05855,0.06118 -2.179562,3.6335 -2.179562,3.670933 0,0.02627 0.09162,0.101967 0.203592,0.168204 0.281959,0.166786 0.665449,0.503682 0.948083,0.83289 0.251542,0.292991 0.618129,0.953228 0.719616,1.296054 0.04381,0.147982 0.08146,0.198639 0.136516,0.183664 0.04181,-0.01137 1.439498,-0.199867 3.105965,-0.418872 l 3.02994,-0.398192 v -0.21989 c 0,-1.132239 1.154706,-2.079619 2.281638,-1.871974 1.281074,0.236048 2.010679,1.596088 1.469982,2.740158 -0.609723,1.290122 -2.200066,1.567531 -3.19321,0.557003 l -0.279915,-0.284813 -3.145235,0.418558 c -1.72988,0.230207 -3.157979,0.425977 -3.173554,0.435045 -0.01557,0.0091 -0.03292,0.158601 -0.03854,0.332297 -0.02788,0.861272 -0.464487,1.812227 -1.170505,2.549442 l -0.194234,0.202816 0.176461,0.252274 0.17646,0.252273 -0.129296,0.09581 c -0.07111,0.05269 -0.242215,0.176999 -0.380228,0.276231 l -0.25093,0.180423 -0.182231,-0.264154 c -0.199401,-0.289045 -0.177781,-0.285378 -0.613368,-0.104024 -1.351049,0.5625 -2.941728,0.236325 -4.124127,-0.845668 l -0.291792,-0.267014 -2.765332,1.843726 c -1.520933,1.014049 -2.757581,1.858866 -2.748106,1.877372 0.432349,0.84444 0.539856,1.248419 0.499763,1.877959 -0.06171,0.969065 -0.675992,1.942834 -1.521363,2.411709 -0.609188,0.337879 -1.509204,0.459745 -2.15084,0.291233 z m 1.350879,-0.97344 c 0.542816,-0.186756 0.946947,-0.555321 1.204114,-1.098144 0.140248,-0.296032 0.151594,-0.357628 0.151594,-0.822975 0,-0.466023 -0.01121,-0.526668 -0.152574,-0.82507 -0.212038,-0.4476 -0.524833,-0.766261 -0.966353,-0.984472 -0.347911,-0.171947 -0.379642,-0.178482 -0.866613,-0.178482 -0.474464,0 -0.52673,0.01 -0.851842,0.162346 -0.422777,0.198163 -0.821885,0.594562 -1.004671,0.997853 -0.164999,0.364046 -0.206865,1.018268 -0.09073,1.417766 0.169867,0.58432 0.74098,1.17032 1.311688,1.345877 0.332753,0.10236 0.945848,0.09524 1.265385,-0.0147 z m 11.123564,-6.997787 c 0.843036,-0.215612 1.526623,-0.765035 1.925582,-1.547659 0.233561,-0.458168 0.322208,-0.839123 0.320117,-1.375673 -0.0034,-0.873314 -0.271622,-1.510691 -0.897067,-2.131737 -0.624576,-0.620181 -1.225753,-0.862274 -2.134452,-0.859542 -0.487746,0.0015 -0.597819,0.01821 -0.9602,0.146045 -0.775629,0.273617 -1.378421,0.806186 -1.716454,1.516492 -0.241223,0.506881 -0.312739,0.81891 -0.310033,1.352694 0.0026,0.512009 0.09753,0.909043 0.323189,1.351721 0.644696,1.264677 2.064661,1.901795 3.449318,1.547659 z m 11.498563,-3.933551 c 0.441312,-0.111124 0.745557,-0.509993 0.745557,-0.977435 0,-0.445353 -0.198154,-0.756517 -0.598802,-0.940306 -0.371818,-0.170563 -0.84045,-0.07782 -1.144432,0.226493 -0.190222,0.190427 -0.268742,0.398987 -0.268742,0.713813 0,0.44983 0.269082,0.830676 0.676738,0.957822 0.262777,0.08196 0.332828,0.08429 0.589681,0.01961 z m -6.719328,-7.06752 c 0.639655,-0.203397 1.081896,-0.978743 0.953724,-1.67209 -0.09663,-0.522748 -0.384737,-0.900373 -0.864614,-1.133278 -0.169349,-0.08219 -0.306511,-0.105951 -0.624225,-0.108122 -0.351621,-0.0024 -0.444188,0.01539 -0.678349,0.13038 -0.313802,0.154102 -0.583254,0.431462 -0.725897,0.747201 -0.153274,0.339271 -0.144126,0.903913 0.02033,1.254562 0.345917,0.737568 1.096117,1.043017 1.919034,0.781347 z"
     id="path998" />
  <path
     style="fill:#ffffff;stroke:#04e762;stroke-width:0.0022994"
     d="m 27.064799,28.309861 c -0.150082,-0.212967 -0.26513,-0.392775 -0.255664,-0.399573 0.562909,-0.404215 0.716886,-0.508711 0.747018,-0.506961 0.02016,0.0012 0.15151,0.165792 0.29188,0.365825 0.289676,0.412799 0.305032,0.35624 -0.191171,0.704135 l -0.319186,0.223786 z"
     id="path1000" />
  <path
     style="fill:#ffffff;stroke:#04e762;stroke-width:0.0022994"
     d="m 28.231369,29.939038 c -0.309535,-0.426452 -0.326533,-0.362025 0.189344,-0.717676 0.17289,-0.119193 0.317208,-0.188775 0.339153,-0.163523 0.02101,0.02418 0.146281,0.195278 0.278379,0.380225 l 0.240179,0.336268 -0.33694,0.238583 c -0.185317,0.13122 -0.359789,0.252479 -0.387715,0.269464 -0.02829,0.0172 -0.171085,-0.134871 -0.3224,-0.343341 z"
     id="path1002" />
  <path
     style="fill:#ffffff;stroke:#04e762;stroke-width:0.0022994"
     d="m 29.542147,31.770003 c -0.261654,-0.334343 -0.408428,-0.587609 -0.364164,-0.628383 0.02397,-0.02208 0.194651,-0.146774 0.379301,-0.277106 l 0.335728,-0.236966 0.268627,0.386825 0.268628,0.386825 -0.374727,0.272996 -0.374727,0.272997 z"
     id="path1004" />
  <path
     style="fill:#ffffff;stroke:#04e762;stroke-width:0.0022994"
     d="m 31.881754,36.886315 c -1.52843,-0.413894 -2.303876,-2.136126 -1.576373,-3.50106 0.153357,-0.287728 0.153889,-0.291078 0.06902,-0.434744 -0.04704,-0.07963 -0.06699,-0.16066 -0.04434,-0.180067 0.02265,-0.01941 0.18602,-0.136632 0.363036,-0.260499 0.270182,-0.189059 0.335977,-0.216388 0.409864,-0.170245 0.06992,0.04366 0.12687,0.03518 0.276955,-0.04127 0.335838,-0.171068 0.693181,-0.250522 1.126719,-0.250522 1.828887,0 3.008542,1.885592 2.202765,3.520958 -0.528203,1.072016 -1.706573,1.621039 -2.827654,1.317453 z m 1.248698,-1.002058 c 0.346269,-0.162765 0.554103,-0.366857 0.723043,-0.710022 0.136705,-0.277687 0.15693,-0.366542 0.154995,-0.680929 -0.0029,-0.465948 -0.135913,-0.780205 -0.45777,-1.081265 -0.377955,-0.353532 -0.830849,-0.490796 -1.320624,-0.400256 -0.513363,0.0949 -0.885837,0.382145 -1.110606,0.856478 -0.09986,0.210741 -0.124913,0.335381 -0.125164,0.622755 -5.98e-4,0.683417 0.373706,1.223296 1.005304,1.450006 0.31041,0.111421 0.828329,0.08542 1.130822,-0.05677 z"
     id="path1006" />
</svg>
