<?xml version="1.0" encoding="UTF-8" standalone="no"?>
<!-- Created with Inkscape (http://www.inkscape.org/) -->

<svg
   width="12.677305mm"
   height="12.680223mm"
   viewBox="0 0 12.677305 12.680223"
   version="1.1"
   id="svg404"
   inkscape:version="1.2.2 (b0a8486541, 2022-12-01)"
   sodipodi:docname="reactive-graph-circle-white-celestial-blue-filled-mexican-pink.svg"
   xmlns:inkscape="http://www.inkscape.org/namespaces/inkscape"
   xmlns:sodipodi="http://sodipodi.sourceforge.net/DTD/sodipodi-0.dtd"
   xmlns="http://www.w3.org/2000/svg"
   xmlns:svg="http://www.w3.org/2000/svg">
  <sodipodi:namedview
     id="namedview406"
     pagecolor="#505050"
     bordercolor="#ffffff"
     borderopacity="1"
     inkscape:showpageshadow="0"
     inkscape:pageopacity="0"
     inkscape:pagecheckerboard="1"
     inkscape:deskcolor="#505050"
     inkscape:document-units="mm"
     showgrid="false"
     inkscape:zoom="14.638496"
     inkscape:cx="8.7099112"
     inkscape:cy="33.883262"
     inkscape:window-width="2494"
     inkscape:window-height="1371"
     inkscape:window-x="0"
     inkscape:window-y="0"
     inkscape:window-maximized="1"
     inkscape:current-layer="layer1" />
  <defs
     id="defs401" />
  <g
     inkscape:label="Ebene 1"
     inkscape:groupmode="layer"
     id="layer1">
    <path
       style="fill:#ffffff;stroke-width:0.0126747"
       d="m 7.7524984,2.3486938 c -0.017136,1.688e-4 -0.034765,5.64e-4 -0.052193,0.00155 C 7.1640139,2.3437721 6.6758655,2.7331506 6.5365519,3.2468302 6.4393446,3.6920016 6.7431213,4.1174907 6.3370809,4.4715617 5.9662249,4.3934552 5.6159426,4.8743791 5.3350749,4.5123861 5.3376219,3.9703642 4.8988077,3.4226386 4.3217,3.4147786 3.3088912,3.2873144 2.7758862,4.7739237 3.6302694,5.3252563 3.9749399,5.6553044 4.625795,5.354419 4.8017741,5.8425374 4.9710983,6.4612553 4.2675558,6.586123 3.8896851,6.9148234 2.8920375,6.5338701 1.7973963,7.6532462 2.2236369,8.639266 2.5791785,9.7669148 4.3452908,9.7638958 4.7082397,8.6434001 4.7210117,8.0672899 4.8886328,7.7036179 5.4668498,7.4739624 5.7822172,7.4171193 6.1730833,7.7708408 6.5525716,7.6357096 6.9138754,7.8160952 7.1511145,8.453013 7.4739624,8.7896444 7.1329926,9.8249784 8.507845,10.761915 9.343099,10.05365 10.279528,9.4333091 9.6988209,7.7905504 8.5736369,7.9126953 8.2371077,7.7494091 8.0373263,7.2391146 7.8031413,6.946346 7.6581549,6.3473613 8.5259588,6.487299 8.9327881,6.3835897 9.4320779,6.7908258 10.277196,6.5667887 10.51512,5.9675944 11.019631,5.0321261 9.7134039,3.9841138 8.911084,4.6880859 8.680299,5.1326525 8.0037639,5.305048 7.6243408,5.0828939 7.4853462,4.6670795 8.1614161,4.7445178 8.3917358,4.5144531 9.3255496,3.9292961 8.8320808,2.338064 7.7524984,2.3486938 Z M 7.632609,2.894397 c 0.093191,-0.00476 0.1886454,0.010281 0.2795695,0.048576 0.3650617,0.1537599 0.5173237,0.5712488 0.3379639,0.9265584 -0.078844,0.1561895 -0.2607731,0.298964 -0.4299479,0.3379639 -0.08303,0.019 -0.2649169,0.016749 -0.3358968,-0.00465 -0.03389,-0.0099 -0.062583,-0.01702 -0.063562,-0.01602 -9.8e-4,0.00149 -0.1305579,0.2175044 -0.2878378,0.4800741 l -0.2857706,0.4774902 0.075448,0.046509 c 0.1620678,0.1000399 0.3186321,0.2931399 0.398942,0.4919597 0.03205,0.07935 0.047306,0.102769 0.064596,0.100769 0.012411,-0.0016 0.3688571,-0.048486 0.7921997,-0.1043864 0.4233426,-0.05595 0.7746141,-0.1018026 0.7803141,-0.1018026 0.00573,0 0.016371,-0.042234 0.023771,-0.093534 0.017684,-0.1227499 0.064161,-0.2202246 0.1452107,-0.3059245 0.1204504,-0.1273899 0.306653,-0.1910137 0.4697388,-0.1607137 0.3059587,0.0569 0.501809,0.343581 0.436149,0.6387207 -0.09273,0.4168096 -0.5965954,0.5628789 -0.8996866,0.2604492 L 9.0588786,5.8415039 8.2398071,5.9505412 C 7.7895436,6.0104811 7.417701,6.0591917 7.413501,6.0590617 c -0.0042,-10e-5 -0.011003,0.043218 -0.015503,0.096118 -0.020236,0.2393797 -0.117797,0.4581079 -0.2852539,0.6407877 -0.03604,0.0394 -0.065112,0.075615 -0.065112,0.080615 0,0.005 0.015917,0.029894 0.035657,0.055294 0.01974,0.0254 0.039742,0.052978 0.044442,0.060978 0.00816,0.0141 -0.1907107,0.1694652 -0.2154907,0.1684652 -0.00589,-3e-4 -0.031718,-0.03103 -0.057878,-0.06873 L 6.8063029,7.0238607 6.73809,7.053833 C 6.6333741,7.100133 6.5333287,7.1233812 6.3985758,7.1323812 6.1133401,7.1510012 5.84071,7.0529247 5.6192952,6.8522949 c -0.04292,-0.0389 -0.081066,-0.070797 -0.085266,-0.070797 -0.0074,0 -1.4110004,0.9322296 -1.4309204,0.9503296 -0.00551,0.005 0.00987,0.048435 0.034107,0.096635 0.02424,0.04816 0.053179,0.1225647 0.064079,0.1653646 0.025188,0.09902 0.025367,0.2935075 5.168e-4,0.3917074 -0.070755,0.2795297 -0.3104336,0.5163767 -0.5891113,0.5818766 -0.045312,0.0108 -0.1309193,0.018893 -0.1901693,0.018603 C 2.8311657,8.9832048 2.4510925,8.3654734 2.7140462,7.8346639 2.914601,7.4298443 3.4403752,7.2682967 3.8178548,7.4956665 l 0.07183,0.043408 L 4.6369263,7.0403971 5.3846842,6.5422363 5.3547119,6.4678223 C 5.253412,6.2170325 5.2488929,5.9618629 5.3417928,5.7138631 L 5.3836507,5.6027588 5.3252563,5.55625 c -0.03213,-0.0256 -0.06398,-0.051327 -0.07028,-0.056327 -0.00904,-0.00783 0.090958,-0.1582081 0.1457275,-0.2191081 0.00588,-0.0065 0.039738,0.010491 0.078548,0.039791 0.06423,0.0485 0.069089,0.049988 0.083199,0.027388 0.00822,-0.01321 0.058401,-0.058469 0.1116211,-0.1007691 C 5.911212,5.0587851 6.1999885,4.9817828 6.5096802,5.0239827 L 6.5861613,5.034318 6.8874349,4.5325399 7.1881917,4.0307617 7.1427165,3.977535 C 7.0156256,3.8290655 6.9642193,3.5907341 7.0161092,3.3915243 7.0914444,3.1023245 7.3530351,2.9086779 7.632609,2.894397 Z M 4.220931,3.9553141 c 0.3643576,0 0.6141452,0.3415278 0.5059123,0.6919475 l -0.026872,0.0863 0.041341,0.03359 c 0.02884,0.0235 0.037989,0.03876 0.030489,0.05116 -0.021673,0.03603 -0.1486126,0.2015381 -0.1545126,0.2015381 -0.00338,0 -0.028244,-0.017357 -0.055294,-0.038757 L 4.5129028,4.9418172 4.42712,4.9764404 v 5.168e-4 C 4.3260511,5.0178572 4.1726445,5.0288786 4.0814046,5.0022786 3.9300298,4.9582187 3.8127307,4.8603152 3.7434408,4.7201253 3.7036608,4.6396254 3.6959476,4.6097542 3.6912476,4.5206543 3.6825736,4.3553945 3.7246599,4.2372421 3.8333577,4.1217122 3.9395126,4.0088928 4.0645061,3.9553141 4.220931,3.9553141 Z m 0.7689453,1.0009725 c 0.00305,0 0.052454,0.035548 0.109554,0.078548 0.057098,0.043 0.1057038,0.079132 0.1080038,0.081132 0.0023,0.00172 -0.031966,0.052195 -0.075964,0.1116211 -0.044036,0.059339 -0.083342,0.1082311 -0.087333,0.1085205 -0.00395,3e-4 -0.054211,-0.034715 -0.1116211,-0.077515 -0.06443,-0.0481 -0.1021853,-0.084068 -0.098185,-0.094568 0.00804,-0.02094 0.1478461,-0.2077393 0.1555461,-0.2077393 z m 2.2815145,2.264978 c 0.016634,-0.01 0.1727072,0.2029584 0.1617472,0.2206584 -0.00352,0.0057 -0.051057,0.041915 -0.1059367,0.080615 -0.054882,0.0386 -0.1027534,0.07028 -0.1064534,0.07028 -0.015841,0 -0.1624755,-0.2178596 -0.1524455,-0.2268595 0.014326,-0.01235 0.1834184,-0.1328941 0.2030884,-0.1446941 z m 0.3167765,0.4325318 c 0.00787,-3.422e-4 0.012629,0.0042 0.01912,0.011886 0.03713,0.04401 0.1373915,0.1919548 0.1369425,0.2020548 -2.46e-4,0.0057 -0.045442,0.041482 -0.1002522,0.079582 -0.05481,0.0381 -0.1051211,0.070864 -0.1116211,0.072864 -0.00646,0.00215 -0.04659,-0.04512 -0.0894,-0.1054199 l -0.078031,-0.1100708 0.028422,-0.021187 c 0.015451,-0.0117 0.065561,-0.048115 0.1116211,-0.080615 0.048821,-0.034438 0.070089,-0.048522 0.083199,-0.049093 z m 0.3074748,0.4294311 c 0.00906,-0.0012 0.014101,0.00349 0.020154,0.011886 0.0094,0.01303 0.045732,0.064305 0.081132,0.1142049 l 0.064596,0.090951 -0.1080037,0.076998 c -0.059418,0.0425 -0.1122055,0.077168 -0.1173055,0.076998 -0.010183,-3.3e-4 -0.1381249,-0.1775057 -0.1493449,-0.2067057 -0.00479,-0.0125 0.028169,-0.043652 0.1023193,-0.097152 0.06456,-0.046625 0.091351,-0.065183 0.1064535,-0.067179 z m 0.7338053,0.3720704 c 0.061332,-9.4e-6 0.096026,0.00624 0.1503784,0.022738 0.2292878,0.06964 0.4174106,0.2795142 0.4614706,0.515214 0.060486,0.3235502 -0.1305786,0.6497693 -0.4423503,0.7539592 -0.1057159,0.0354 -0.2518882,0.04292 -0.3570841,0.01912 C 8.2009112,9.711879 8.0035608,9.5213246 7.9421509,9.2831543 7.9019409,9.1272045 7.9216944,8.9524677 7.9958944,8.8082479 c 0.03596,-0.0699 0.036286,-0.071586 0.013436,-0.1012858 -0.01279,-0.0167 -0.023616,-0.034241 -0.023771,-0.038241 -1.55e-4,-0.0044 0.049431,-0.043516 0.1100708,-0.086816 0.095403,-0.0679 0.1120402,-0.076011 0.1245402,-0.058911 0.012809,0.0175 0.025211,0.015146 0.1085205,-0.020154 0.080076,-0.0339 0.1137487,-0.040475 0.2289266,-0.045475 0.028064,-0.0012 0.051386,-0.00206 0.07183,-0.00207 z"
       id="path492" />
    <path
       style="fill:#ffffff;stroke-width:0.0126747"
       d="M 6.3370809,0 C 6.1501176,1.8749981e-5 5.963438,0.00448588 5.8497721,0.01343587 5.6329224,0.03053586 5.3595217,0.06777084 5.139738,0.1100708 3.4787646,0.42981043 2.0084156,1.4054299 1.0645345,2.8142985 0.57932317,3.5385378 0.24085184,4.3834226 0.08991699,5.2477417 0.02200706,5.6366013 -1.7899983e-4,5.907846 0,6.3443156 2.5299974e-4,6.958545 0.06918805,7.4675946 0.23047689,8.047054 c 0.37332763,1.3412592 1.20581951,2.55202 2.32337241,3.379639 1.033299,0.765229 2.2608551,1.198969 3.5305338,1.247469 v 5.17e-4 c 0.1289639,0.0046 0.2682287,0.0067 0.3100586,0.0046 0.041826,-0.0023 0.1620845,-0.0063 0.2666504,-0.01033 0.4418046,-0.01543 0.9394311,-0.09733 1.4195516,-0.233577 1.4096211,-0.4 2.6649403,-1.305055 3.4902263,-2.5166426 0.680393,-0.9988695 1.062408,-2.1548784 1.102258,-3.3367472 0.02324,-0.6892793 -0.04954,-1.310233 -0.22841,-1.9528524 C 12.071096,3.2868665 11.24365,2.0830718 10.120829,1.2485026 9.1642591,0.53751338 8.011905,0.10563578 6.8254232,0.01343587 6.7109953,0.00456088 6.5240442,-1.8749981e-5 6.3370809,0 Z M 6.3220947,0.51314697 C 7.2760083,0.50923152 8.2285817,0.72592801 9.0717977,1.1787394 11.781484,2.5114643 12.988073,6.1193811 11.624097,8.8139323 10.399401,11.559757 6.8685426,12.917469 4.1253296,11.676807 1.3738845,10.597521 -0.13707481,7.233606 0.87229818,4.457609 1.6165104,2.2597818 3.6180861,0.70760388 5.9133341,0.52813314 6.0493269,0.51861728 6.1858214,0.51370632 6.3220947,0.51314697 Z"
       id="path721" />
    <path
       style="fill:#00a1e4;stroke-width:0.0126747"
       d="m 4.0653275,4.7328353 c -0.09481,-0.04112 -0.152187,-0.129035 -0.152187,-0.233204 0,-0.08454 0.02282,-0.135628 0.08603,-0.19267 0.05782,-0.05218 0.111258,-0.06711 0.207144,-0.0579 0.06995,0.0067 0.110359,0.03143 0.168148,0.102834 0.07306,0.09027 0.05752,0.250024 -0.03249,0.333982 -0.0691,0.06446 -0.189258,0.08485 -0.276643,0.04696 z"
       id="path687" />
    <path
       style="fill:#00a1e4;stroke-width:0.0126747"
       d="m 6.0931805,6.8497168 c -0.139055,-0.03652 -0.252679,-0.1035337 -0.36169,-0.2133187 -0.11641,-0.117236 -0.171808,-0.21195 -0.20898,-0.3572927 -0.06523,-0.255061 0.0024,-0.526786 0.179051,-0.719594 0.09318,-0.101692 0.185758,-0.16378 0.319436,-0.214237 0.09453,-0.03568 0.117543,-0.03926 0.255966,-0.03977 0.167449,-6.35e-4 0.225139,0.01237 0.371302,0.08365 0.121361,0.05918 0.272957,0.212877 0.335178,0.339827 0.08749,0.178512 0.108034,0.364846 0.06065,0.550131 -0.03717,0.1453427 -0.09257,0.2400567 -0.208981,0.3572927 -0.110809,0.111597 -0.22423,0.177668 -0.36752,0.2140927 -0.09409,0.02392 -0.281868,0.02353 -0.374408,-7.67e-4 z"
       id="path689" />
    <path
       style="fill:#00a1e4;stroke-width:0.0126747"
       d="m 7.5220495,3.9539363 c -0.07996,-0.01973 -0.142452,-0.05842 -0.202858,-0.125602 -0.175655,-0.195371 -0.110644,-0.503409 0.129532,-0.6137489 0.08426,-0.03871 0.238834,-0.03754 0.31998,0.0024 0.07595,0.03741 0.152617,0.1140759 0.190027,0.1900259 0.02378,0.04827 0.02925,0.07985 0.02901,0.16724 -2.58e-4,0.09156 -0.0053,0.117367 -0.03387,0.171912 -0.03945,0.07542 -0.119032,0.151245 -0.192419,0.183328 -0.06527,0.02853 -0.17665,0.03989 -0.239398,0.02441 z"
       id="path691" />
    <path
       style="fill:#00a1e4;stroke-width:0.0126747"
       d="m 9.3766705,5.8012024 c -0.02398,-0.0076 -0.06759,-0.03701 -0.0969,-0.06525 -0.08061,-0.07765 -0.102117,-0.182612 -0.05727,-0.279485 0.05989,-0.129362 0.20434,-0.190446 0.3281,-0.138749 0.176928,0.07391 0.22129,0.288137 0.08655,0.417938 -0.07718,0.07435 -0.164202,0.09625 -0.260474,0.06554 z"
       id="path693" />
    <path
       style="fill:#00a1e4;stroke-width:0.0126747"
       d="m 8.4040105,9.4959528 c -0.149322,-0.05336 -0.244611,-0.180196 -0.254813,-0.339166 -0.0079,-0.123107 0.01895,-0.201192 0.09949,-0.289312 0.08271,-0.0905 0.164762,-0.12669 0.286378,-0.126319 0.115057,3.44e-4 0.2073,0.04238 0.286592,0.130568 0.170716,0.189878 0.109162,0.496158 -0.122225,0.608171 -0.08391,0.04062 -0.207836,0.04736 -0.295418,0.01606 z"
       id="path695" />
    <path
       style="fill:#00a1e4;stroke-width:0.0126747"
       d="m 3.2196605,8.7025048 c -0.247714,-0.08066 -0.405726,-0.338323 -0.359923,-0.586902 0.06397,-0.347194 0.429379,-0.533869 0.742297,-0.379216 0.149931,0.0741 0.246078,0.198759 0.280453,0.363621 0.04808,0.230594 -0.06769,0.463663 -0.283405,0.570551 -0.07573,0.03752 -0.09857,0.04261 -0.205602,0.04578 -0.07697,0.0023 -0.139677,-0.0027 -0.17382,-0.01383 z"
       id="path697" />
    <path
       style="fill:#dc0073;stroke-width:0.00327903"
       d="M 21.967547,45.76686 C 19.357079,45.515662 16.751865,44.734697 14.072484,43.400159 9.9878895,41.365717 6.6817625,37.981353 4.5420248,33.644167 3.5988015,31.73228 3.1087632,30.359762 2.6684727,28.396648 1.8959259,24.952111 1.9879154,21.401929 2.9349705,18.111602 4.0130953,14.365905 5.8837451,11.165986 8.5731817,8.4669212 10.515504,6.5176449 12.649362,5.0204156 15.009088,3.951141 21.97117,0.7963784 29.902649,1.4519354 36.396701,5.7188818 c 2.80092,1.8403576 5.313525,4.6559052 6.975264,7.8162682 2.409683,4.582832 3.207261,9.787062 2.25317,14.702025 -0.360576,1.85749 -0.889408,3.352796 -1.936406,5.475305 -1.237607,2.508918 -2.649304,4.406335 -4.613676,6.201097 -3.37508,3.083663 -7.54388,5.030653 -12.262189,5.726914 -1.063708,0.156967 -3.788766,0.228039 -4.845317,0.126369 z m 11.690336,-6.905646 c 0.574042,-0.122437 1.066764,-0.37246 1.728266,-0.876977 0.96972,-0.73959 1.444525,-1.496933 1.654125,-2.638433 0.09256,-0.504089 0.09765,-0.705012 0.03204,-1.264235 -0.290894,-2.479341 -2.061989,-4.228775 -4.281135,-4.228775 -0.358658,0 -0.465765,-0.03016 -0.690885,-0.194526 -0.412643,-0.301286 -0.875893,-0.832542 -1.300983,-1.491971 -0.213434,-0.331095 -0.602006,-0.933091 -0.863493,-1.33777 -0.467268,-0.723146 -0.474894,-0.742255 -0.444155,-1.112919 0.07187,-0.866701 0.665833,-1.160546 2.752086,-1.361519 0.601154,-0.05791 1.177778,-0.122631 1.281386,-0.143825 0.135728,-0.02776 0.278924,0.01716 0.512348,0.160719 1.162211,0.714806 2.642808,0.745524 3.967844,0.08232 0.77931,-0.390057 1.300784,-0.938057 1.720043,-1.807537 0.487027,-1.010018 0.582043,-1.66286 0.371819,-2.554695 -0.262654,-1.11426 -1.201294,-2.262639 -2.286776,-2.797756 -0.589976,-0.290845 -1.312932,-0.484987 -1.81398,-0.487127 -0.841784,-0.0036 -1.925462,0.425297 -2.306118,0.912702 -0.425425,0.544726 -1.043207,1.105921 -1.459276,1.325607 -0.853586,0.450699 -1.904071,0.600054 -2.722537,0.387082 -0.599647,-0.156033 -0.714561,-0.250809 -0.714561,-0.589338 0,-0.239084 0.04063,-0.320905 0.265638,-0.53495 0.220885,-0.210123 0.433664,-0.306806 1.262999,-0.573882 0.877288,-0.28252 1.061194,-0.368951 1.527579,-0.717923 0.621515,-0.465049 0.80575,-0.65591 1.133841,-1.174615 0.833898,-1.318378 0.804068,-3.330714 -0.07178,-4.842476 C 32.526613,10.332827 31.724737,9.5630746 31.108871,9.2672956 30.43962,8.945878 30.068517,8.8706722 29.169663,8.8743085 c -0.870006,0.00352 -1.365295,0.1119924 -2.049391,0.4488351 -1.118832,0.5509036 -1.978101,1.5278034 -2.364105,2.6877484 -0.140368,0.421803 -0.145956,0.515275 -0.09241,1.545604 0.106525,2.049848 0.05012,2.42868 -0.44539,2.991615 -0.254903,0.289585 -0.279627,0.300888 -0.682501,0.311991 -0.312765,0.0086 -0.610822,0.08691 -1.18377,0.310936 -0.96865,0.378749 -1.247185,0.428463 -1.592408,0.28422 -0.4046,-0.169053 -0.573185,-0.360593 -0.573185,-0.651233 0,-0.411679 -0.252298,-1.271269 -0.526014,-1.792152 -0.327764,-0.623736 -1.061526,-1.371611 -1.651012,-1.682769 -0.565735,-0.29862 -0.989798,-0.407665 -1.78513,-0.459031 -1.1697,-0.07555 -2.06513,0.258507 -2.871873,1.071395 -0.805912,0.812049 -1.251931,1.915955 -1.253581,3.102633 -0.0016,1.134521 0.345344,1.995791 1.081168,2.684118 0.871045,0.81482 1.247303,0.977026 2.668565,1.150429 1.72094,0.209965 2.267884,0.622938 2.340386,1.767121 0.02787,0.439877 0.01188,0.51359 -0.199599,0.919994 -0.276165,0.530711 -0.71639,0.90937 -1.765066,1.518222 -0.394507,0.229047 -0.902016,0.546628 -1.127797,0.705736 l -0.410509,0.289287 -0.47756,-0.124404 c -2.37567,-0.618858 -5.0637353,0.971223 -5.9548029,3.522468 -0.1736243,0.497109 -0.190552,0.629858 -0.1872875,1.46873 0.00337,0.86716 0.016971,0.958936 0.2277087,1.537043 0.3402561,0.933409 0.608349,1.387417 1.1331017,1.918877 1.039207,1.052491 2.336769,1.525242 3.956603,1.441543 0.89258,-0.04612 1.379994,-0.166628 2.123257,-0.524946 0.910444,-0.438916 1.616093,-1.134418 2.063378,-2.033709 0.213899,-0.430056 0.254122,-0.590154 0.301819,-1.2013 0.13579,-1.739876 0.834201,-2.831665 2.272172,-3.551968 0.687333,-0.344296 0.936966,-0.33502 2.245256,0.08343 1.185926,0.379311 1.61279,0.451604 2.066368,0.349956 0.308087,-0.06904 0.330495,-0.06302 0.657211,0.176815 0.417648,0.306583 0.781475,0.748517 1.395865,1.695532 0.518134,0.798648 1.311079,1.949195 1.542594,2.238272 0.132181,0.165045 0.138776,0.212345 0.06852,0.491364 -0.108321,0.430178 -0.09564,1.438578 0.02374,1.887751 0.204022,0.767664 0.562453,1.357993 1.225251,2.017971 0.701663,0.698678 1.385944,1.104239 2.241227,1.328336 0.569255,0.149153 1.502369,0.176701 2.047429,0.06044 z"
       id="path563"
       transform="scale(0.26458333)" />
  </g>
</svg>
