<?xml version="1.0" encoding="UTF-8" standalone="no"?>
<!-- Created with Inkscape (http://www.inkscape.org/) -->

<svg
   width="12.677305mm"
   height="12.680223mm"
   viewBox="0 0 12.677305 12.680223"
   version="1.1"
   id="svg404"
   inkscape:version="1.2.2 (b0a8486541, 2022-12-01)"
   sodipodi:docname="reactive-graph-circle-black-selective-yellow.svg"
   xmlns:inkscape="http://www.inkscape.org/namespaces/inkscape"
   xmlns:sodipodi="http://sodipodi.sourceforge.net/DTD/sodipodi-0.dtd"
   xmlns="http://www.w3.org/2000/svg"
   xmlns:svg="http://www.w3.org/2000/svg">
  <sodipodi:namedview
     id="namedview406"
     pagecolor="#505050"
     bordercolor="#ffffff"
     borderopacity="1"
     inkscape:showpageshadow="0"
     inkscape:pageopacity="0"
     inkscape:pagecheckerboard="1"
     inkscape:deskcolor="#505050"
     inkscape:document-units="mm"
     showgrid="false"
     inkscape:zoom="14.638496"
     inkscape:cx="8.5732851"
     inkscape:cy="33.951575"
     inkscape:window-width="2494"
     inkscape:window-height="1371"
     inkscape:window-x="4546"
     inkscape:window-y="32"
     inkscape:window-maximized="1"
     inkscape:current-layer="layer1" />
  <defs
     id="defs401" />
  <g
     inkscape:label="Ebene 1"
     inkscape:groupmode="layer"
     id="layer1">
    <path
       id="path721"
       clip-path="none"
       style="fill:#000000;stroke-width:0.0126747"
       d="M 6.3370809 0 C 6.1501176 1.8749981e-05 5.963438 0.0044858813 5.8497721 0.013435872 C 5.6329224 0.030535855 5.3595217 0.067770843 5.139738 0.1100708 C 3.4787646 0.42981043 2.0084156 1.4054299 1.0645345 2.8142985 C 0.57932317 3.5385378 0.24085184 4.3834226 0.089916992 5.2477417 C 0.02200706 5.6366013 -0.00017899983 5.907846 0 6.3443156 C 0.00025299974 6.958545 0.069188049 7.4675946 0.23047689 8.047054 C 0.60380452 9.3883132 1.4362964 10.599074 2.5538493 11.426693 C 3.5871483 12.191922 4.8147044 12.625662 6.0843831 12.674162 L 6.0843831 12.674679 C 6.213347 12.679279 6.3526118 12.681329 6.3944417 12.679329 C 6.4362677 12.677029 6.5565262 12.672994 6.6610921 12.668994 C 7.1028967 12.653564 7.6005232 12.571667 8.0806437 12.435417 C 9.4902648 12.035417 10.745584 11.130362 11.57087 9.9187744 C 12.251263 8.9199049 12.633278 7.763896 12.673128 6.5820272 C 12.696367 5.8927479 12.623587 5.2717942 12.444718 4.6291748 C 12.071096 3.2868665 11.24365 2.0830718 10.120829 1.2485026 C 9.1642591 0.53751338 8.011905 0.10563578 6.8254232 0.013435872 C 6.7109953 0.0045608813 6.5240442 -1.8749981e-05 6.3370809 0 z M 6.3220947 0.51314697 C 7.2760083 0.50923152 8.2285817 0.72592801 9.0717977 1.1787394 C 11.781484 2.5114643 12.988073 6.1193811 11.624097 8.8139323 C 10.399401 11.559757 6.8685426 12.917469 4.1253296 11.676807 C 1.3738845 10.597521 -0.13707481 7.233606 0.87229818 4.457609 C 1.6165104 2.2597818 3.6180861 0.70760388 5.9133341 0.52813314 C 6.0493269 0.51861728 6.1858214 0.51370632 6.3220947 0.51314697 z M 7.7524984 2.3486938 C 7.7353621 2.3488626 7.7177332 2.3492578 7.7003052 2.3502441 C 7.1640139 2.3437721 6.6758655 2.7331506 6.5365519 3.2468302 C 6.4393446 3.6920016 6.7431213 4.1174907 6.3370809 4.4715617 C 5.9662249 4.3934552 5.6159426 4.8743791 5.3350749 4.5123861 C 5.3376219 3.9703642 4.8988077 3.4226386 4.3217 3.4147786 C 3.3088912 3.2873144 2.7758862 4.7739237 3.6302694 5.3252563 C 3.9749399 5.6553044 4.625795 5.354419 4.8017741 5.8425374 C 4.9710983 6.4612553 4.2675558 6.586123 3.8896851 6.9148234 C 2.8920375 6.5338701 1.7973963 7.6532462 2.2236369 8.639266 C 2.5791785 9.7669148 4.3452908 9.7638958 4.7082397 8.6434001 C 4.7210117 8.0672899 4.8886328 7.7036179 5.4668498 7.4739624 C 5.7822172 7.4171193 6.1730833 7.7708408 6.5525716 7.6357096 C 6.9138754 7.8160952 7.1511145 8.453013 7.4739624 8.7896444 C 7.1329926 9.8249784 8.507845 10.761915 9.343099 10.05365 C 10.279528 9.4333091 9.6988209 7.7905504 8.5736369 7.9126953 C 8.2371077 7.7494091 8.0373263 7.2391146 7.8031413 6.946346 C 7.6581549 6.3473613 8.5259588 6.487299 8.9327881 6.3835897 C 9.4320779 6.7908258 10.277196 6.5667887 10.51512 5.9675944 C 11.019631 5.0321261 9.7134039 3.9841138 8.911084 4.6880859 C 8.680299 5.1326525 8.0037639 5.305048 7.6243408 5.0828939 C 7.4853462 4.6670795 8.1614161 4.7445178 8.3917358 4.5144531 C 9.3255496 3.9292961 8.8320808 2.338064 7.7524984 2.3486938 z M 7.632609 2.894397 C 7.7258004 2.8896367 7.8212544 2.9046779 7.9121785 2.9429728 C 8.2772402 3.0967327 8.4295022 3.5142216 8.2501424 3.8695312 C 8.1712985 4.0257207 7.9893693 4.1684952 7.8201945 4.2074951 C 7.7371646 4.2264951 7.5552776 4.2242442 7.4842977 4.2028442 C 7.4504077 4.1929442 7.4217147 4.1858245 7.4207357 4.1868245 C 7.4197557 4.1883145 7.2901778 4.4043289 7.1328979 4.6668986 L 6.8471273 5.1443888 L 6.9225749 5.1908976 C 7.0846427 5.2909375 7.241207 5.4840375 7.3215169 5.6828573 C 7.3535669 5.7622072 7.3688225 5.7856263 7.3861125 5.7836263 C 7.3985235 5.7820263 7.7549696 5.7351399 8.1783122 5.6792399 C 8.6016548 5.62329 8.9529263 5.5774373 8.9586263 5.5774373 C 8.9643563 5.5774373 8.9749975 5.5352029 8.9823975 5.483903 C 9.0000814 5.3611531 9.0465583 5.2636784 9.1276082 5.1779785 C 9.2480586 5.0505886 9.4342612 4.9869648 9.597347 5.0172648 C 9.9033057 5.0741648 10.099156 5.3608458 10.033496 5.6559855 C 9.9407656 6.0727951 9.4369006 6.2188644 9.1338094 5.9164347 L 9.0588786 5.8415039 L 8.2398071 5.9505412 C 7.7895436 6.0104811 7.417701 6.0591917 7.413501 6.0590617 C 7.409301 6.0589617 7.402498 6.1022799 7.397998 6.1551799 C 7.3777621 6.3945596 7.280201 6.6132878 7.1127441 6.7959676 C 7.0767042 6.8353676 7.0476318 6.8715829 7.0476318 6.8765828 C 7.0476318 6.8815828 7.0635486 6.9064767 7.0832886 6.9318766 C 7.1030286 6.9572766 7.1230303 6.9848548 7.1277303 6.9928548 C 7.1358943 7.0069548 6.9370196 7.16232 6.9122396 7.16132 C 6.9063496 7.16102 6.880522 7.1302903 6.854362 7.0925903 L 6.8063029 7.0238607 L 6.73809 7.053833 C 6.6333741 7.100133 6.5333287 7.1233812 6.3985758 7.1323812 C 6.1133401 7.1510012 5.84071 7.0529247 5.6192952 6.8522949 C 5.5763753 6.813395 5.5382291 6.7814982 5.5340291 6.7814982 C 5.5266251 6.7814982 4.1230287 7.7137278 4.1031087 7.7318278 C 4.0975987 7.7368278 4.1129752 7.7802628 4.1372152 7.8284627 C 4.1614551 7.8766227 4.190394 7.9510274 4.2012939 7.9938273 C 4.2264819 8.0928472 4.2266607 8.2873348 4.2018107 8.3855347 C 4.1310558 8.6650644 3.8913771 8.9019114 3.6126994 8.9674113 C 3.5673874 8.9782113 3.4817801 8.9863048 3.4225301 8.9860148 C 2.8311657 8.9832048 2.4510925 8.3654734 2.7140462 7.8346639 C 2.914601 7.4298443 3.4403752 7.2682967 3.8178548 7.4956665 L 3.8896851 7.5390747 L 4.6369263 7.0403971 L 5.3846842 6.5422363 L 5.3547119 6.4678223 C 5.253412 6.2170325 5.2488929 5.9618629 5.3417928 5.7138631 L 5.3836507 5.6027588 L 5.3252563 5.55625 C 5.2931264 5.53065 5.2612764 5.5049227 5.2549764 5.4999227 C 5.2459404 5.4920927 5.345934 5.3417146 5.4007039 5.2808146 C 5.4065839 5.2743146 5.4404422 5.2913055 5.4792521 5.3206055 C 5.5434821 5.3691054 5.5483412 5.370594 5.5624512 5.347994 C 5.5706712 5.334784 5.6208523 5.2895249 5.6740723 5.2472249 C 5.911212 5.0587851 6.1999885 4.9817828 6.5096802 5.0239827 L 6.5861613 5.034318 L 6.8874349 4.5325399 L 7.1881917 4.0307617 L 7.1427165 3.977535 C 7.0156256 3.8290655 6.9642193 3.5907341 7.0161092 3.3915243 C 7.0914444 3.1023245 7.3530351 2.9086779 7.632609 2.894397 z M 4.220931 3.9553141 C 4.5852886 3.9553141 4.8350762 4.2968419 4.7268433 4.6472616 L 4.6999715 4.7335612 L 4.7413127 4.7671509 C 4.7701526 4.7906509 4.7793018 4.8059106 4.7718018 4.8183105 C 4.7501288 4.8543405 4.6231892 5.0198486 4.6172892 5.0198486 C 4.6139092 5.0198486 4.5890454 5.0024913 4.5619954 4.9810913 L 4.5129028 4.9418172 L 4.42712 4.9764404 L 4.42712 4.9769572 C 4.3260511 5.0178572 4.1726445 5.0288786 4.0814046 5.0022786 C 3.9300298 4.9582187 3.8127307 4.8603152 3.7434408 4.7201253 C 3.7036608 4.6396254 3.6959476 4.6097542 3.6912476 4.5206543 C 3.6825736 4.3553945 3.7246599 4.2372421 3.8333577 4.1217122 C 3.9395126 4.0088928 4.0645061 3.9553141 4.220931 3.9553141 z M 4.9898763 4.9562866 C 4.9929283 4.9562866 5.0423304 4.9918348 5.0994303 5.0348348 C 5.1565283 5.0778348 5.2051341 5.1139668 5.2074341 5.1159668 C 5.209739 5.117683 5.1754683 5.1681618 5.1314697 5.2275879 C 5.0874338 5.2869273 5.0481281 5.335819 5.0441366 5.3361084 C 5.0401826 5.3364084 4.9899254 5.3013937 4.9325155 5.2585937 C 4.8680855 5.2104938 4.8303302 5.1745259 4.8343302 5.1640259 C 4.8423662 5.1430859 4.9821763 4.9562866 4.9898763 4.9562866 z M 7.2713908 7.2212646 C 7.2880248 7.2112647 7.444098 7.424223 7.433138 7.441923 C 7.429622 7.447623 7.3820813 7.4838383 7.3272013 7.5225382 C 7.2723194 7.5611382 7.2244479 7.5928182 7.2207479 7.5928182 C 7.2049069 7.5928182 7.0582724 7.3749586 7.0683024 7.3659587 C 7.0826284 7.3536087 7.2517208 7.2330646 7.2713908 7.2212646 z M 7.5881673 7.6537964 C 7.5960333 7.6534542 7.6007964 7.6579945 7.6072876 7.665682 C 7.6444176 7.7096919 7.7446791 7.8576368 7.7442301 7.8677368 C 7.7439841 7.8734368 7.6987878 7.9092186 7.6439779 7.9473185 C 7.5891679 7.9854185 7.5388568 8.0181823 7.5323568 8.0201823 C 7.5258968 8.0223323 7.4857665 7.9750623 7.4429565 7.9147624 L 7.3649251 7.8046916 L 7.3933472 7.7835042 C 7.4087982 7.7718042 7.4589083 7.735389 7.5049683 7.702889 C 7.5537888 7.6684515 7.5750573 7.6543667 7.5881673 7.6537964 z M 7.8956421 8.0832275 C 7.9047034 8.0820299 7.9097434 8.0867131 7.9157959 8.0951131 C 7.9251959 8.1081431 7.9615279 8.1594181 7.9969279 8.209318 L 8.0615234 8.3002686 L 7.9535197 8.3772664 C 7.8941018 8.4197664 7.8413142 8.4544343 7.8362142 8.4542643 C 7.8260312 8.4539343 7.6980893 8.2767586 7.6868693 8.2475586 C 7.6820813 8.2350586 7.7150387 8.2039068 7.7891886 8.1504069 C 7.8537486 8.1037819 7.8805399 8.0852236 7.8956421 8.0832275 z M 8.6294474 8.4552979 C 8.6907792 8.4552885 8.7254734 8.4615355 8.7798258 8.4780355 C 9.0091136 8.5476754 9.1972364 8.7575497 9.2412964 8.9932495 C 9.3017828 9.3167997 9.1107178 9.6430188 8.7989461 9.7472087 C 8.6932302 9.7826086 8.5470579 9.7901289 8.441862 9.7663289 C 8.2009112 9.711879 8.0035608 9.5213246 7.9421509 9.2831543 C 7.9019409 9.1272045 7.9216944 8.9524677 7.9958944 8.8082479 C 8.0318543 8.738348 8.0321802 8.736662 8.0093302 8.7069621 C 7.9965403 8.6902621 7.9857141 8.6727215 7.9855591 8.6687215 C 7.9854041 8.6643215 8.0349899 8.6252051 8.0956299 8.5819051 C 8.1910328 8.5140052 8.2076701 8.505894 8.2201701 8.522994 C 8.2329791 8.540494 8.2453807 8.5381401 8.3286906 8.5028402 C 8.4087665 8.4689402 8.4424393 8.4623649 8.5576172 8.4573649 C 8.5856814 8.4561649 8.6090035 8.455301 8.6294474 8.4552979 z " />
    <path
       style="fill:#f5b700;stroke-width:0.0126747"
       d="m 4.0653275,4.7328353 c -0.09481,-0.04112 -0.152187,-0.129035 -0.152187,-0.233204 0,-0.08454 0.02282,-0.135628 0.08603,-0.19267 0.05782,-0.05218 0.111258,-0.06711 0.207144,-0.0579 0.06995,0.0067 0.110359,0.03143 0.168148,0.102834 0.07306,0.09027 0.05752,0.250024 -0.03249,0.333982 -0.0691,0.06446 -0.189258,0.08485 -0.276643,0.04696 z"
       id="path687" />
    <path
       style="fill:#f5b700;stroke-width:0.0126747"
       d="m 6.0931805,6.8497168 c -0.139055,-0.03652 -0.252679,-0.1035337 -0.36169,-0.2133187 -0.11641,-0.117236 -0.171808,-0.21195 -0.20898,-0.3572927 -0.06523,-0.255061 0.0024,-0.526786 0.179051,-0.719594 0.09318,-0.101692 0.185758,-0.16378 0.319436,-0.214237 0.09453,-0.03568 0.117543,-0.03926 0.255966,-0.03977 0.167449,-6.35e-4 0.225139,0.01237 0.371302,0.08365 0.121361,0.05918 0.272957,0.212877 0.335178,0.339827 0.08749,0.178512 0.108034,0.364846 0.06065,0.550131 -0.03717,0.1453427 -0.09257,0.2400567 -0.208981,0.3572927 -0.110809,0.111597 -0.22423,0.177668 -0.36752,0.2140927 -0.09409,0.02392 -0.281868,0.02353 -0.374408,-7.67e-4 z"
       id="path689" />
    <path
       style="fill:#f5b700;stroke-width:0.0126747"
       d="m 7.5220495,3.9539363 c -0.07996,-0.01973 -0.142452,-0.05842 -0.202858,-0.125602 -0.175655,-0.195371 -0.110644,-0.503409 0.129532,-0.6137489 0.08426,-0.03871 0.238834,-0.03754 0.31998,0.0024 0.07595,0.03741 0.152617,0.1140759 0.190027,0.1900259 0.02378,0.04827 0.02925,0.07985 0.02901,0.16724 -2.58e-4,0.09156 -0.0053,0.117367 -0.03387,0.171912 -0.03945,0.07542 -0.119032,0.151245 -0.192419,0.183328 -0.06527,0.02853 -0.17665,0.03989 -0.239398,0.02441 z"
       id="path691" />
    <path
       style="fill:#f5b700;stroke-width:0.0126747"
       d="m 9.3766705,5.8012024 c -0.02398,-0.0076 -0.06759,-0.03701 -0.0969,-0.06525 -0.08061,-0.07765 -0.102117,-0.182612 -0.05727,-0.279485 0.05989,-0.129362 0.20434,-0.190446 0.3281,-0.138749 0.176928,0.07391 0.22129,0.288137 0.08655,0.417938 -0.07718,0.07435 -0.164202,0.09625 -0.260474,0.06554 z"
       id="path693" />
    <path
       style="fill:#f5b700;stroke-width:0.0126747"
       d="m 8.4040105,9.4959528 c -0.149322,-0.05336 -0.244611,-0.180196 -0.254813,-0.339166 -0.0079,-0.123107 0.01895,-0.201192 0.09949,-0.289312 0.08271,-0.0905 0.164762,-0.12669 0.286378,-0.126319 0.115057,3.44e-4 0.2073,0.04238 0.286592,0.130568 0.170716,0.189878 0.109162,0.496158 -0.122225,0.608171 -0.08391,0.04062 -0.207836,0.04736 -0.295418,0.01606 z"
       id="path695" />
    <path
       style="fill:#f5b700;stroke-width:0.0126747"
       d="m 3.2196605,8.7025048 c -0.247714,-0.08066 -0.405726,-0.338323 -0.359923,-0.586902 0.06397,-0.347194 0.429379,-0.533869 0.742297,-0.379216 0.149931,0.0741 0.246078,0.198759 0.280453,0.363621 0.04808,0.230594 -0.06769,0.463663 -0.283405,0.570551 -0.07573,0.03752 -0.09857,0.04261 -0.205602,0.04578 -0.07697,0.0023 -0.139677,-0.0027 -0.17382,-0.01383 z"
       id="path697" />
  </g>
</svg>
