<?xml version="1.0" encoding="UTF-8" standalone="no"?>
<!-- Created with Inkscape (http://www.inkscape.org/) -->

<svg
   width="12.677mm"
   height="12.68mm"
   viewBox="0 0 12.677 12.68"
   version="1.1"
   id="svg404"
   inkscape:version="1.2.2 (b0a8486541, 2022-12-01)"
   sodipodi:docname="reactive-graph-c-white.svg"
   xmlns:inkscape="http://www.inkscape.org/namespaces/inkscape"
   xmlns:sodipodi="http://sodipodi.sourceforge.net/DTD/sodipodi-0.dtd"
   xmlns="http://www.w3.org/2000/svg"
   xmlns:svg="http://www.w3.org/2000/svg">
  <sodipodi:namedview
     id="namedview406"
     pagecolor="#505050"
     bordercolor="#ffffff"
     borderopacity="1"
     inkscape:showpageshadow="0"
     inkscape:pageopacity="0"
     inkscape:pagecheckerboard="1"
     inkscape:deskcolor="#505050"
     inkscape:document-units="mm"
     showgrid="false"
     inkscape:zoom="14.638496"
     inkscape:cx="8.9148503"
     inkscape:cy="21.245352"
     inkscape:window-width="2560"
     inkscape:window-height="1403"
     inkscape:window-x="0"
     inkscape:window-y="0"
     inkscape:window-maximized="1"
     inkscape:current-layer="layer1" />
  <defs
     id="defs401" />
  <g
     inkscape:label="Ebene 1"
     inkscape:groupmode="layer"
     id="layer1"
     transform="translate(-2.6468173,-2.9139225)">
    <path
       style="fill:#ffffff;stroke:#04e762;stroke-width:0.00122696"
       d="M 5.838348,11.852036 C 5.2790968,11.670021 5.1088894,10.972802 5.5226914,10.559012 5.7556954,10.326016 6.0969897,10.261952 6.394353,10.395397 l 0.1507555,0.06765 0.7515266,-0.500924 0.7515273,-0.5009253 -0.05198,-0.1354645 c -0.07099,-0.1850086 -0.07236,-0.469614 -0.00321,-0.6668593 l 0.051878,-0.1479767 -0.061929,-0.048712 c -0.053991,-0.042468 -0.05802,-0.056265 -0.031428,-0.1076352 0.016775,-0.032408 0.047131,-0.078027 0.067458,-0.1013762 0.034057,-0.039121 0.042561,-0.039238 0.1083415,-0.00148 0.069796,0.040056 0.073854,0.038852 0.1824723,-0.054117 C 8.513231,8.0234263 8.6679398,7.9672796 8.976893,7.9554668 L 9.2498444,7.9450295 9.5479158,7.4476089 9.8459873,6.9501885 9.7792235,6.8538511 c -0.3024609,-0.4364374 0.00267,-1.022345 0.5334415,-1.0243093 0.189686,-7.143e-4 0.331271,0.064204 0.471209,0.2160146 0.412292,0.4472702 0.01337,1.1773326 -0.583381,1.0676445 -0.07797,-0.014332 -0.142825,-0.024458 -0.144117,-0.0225 -0.0013,0.00196 -0.132635,0.2213274 -0.2918733,0.48749 l -0.2895241,0.4839319 0.061816,0.038632 c 0.123378,0.077106 0.3190316,0.3004246 0.3878015,0.4426365 0.038701,0.080031 0.078961,0.1506006 0.089467,0.1568201 0.01466,0.00868 1.382811,-0.1605832 1.563939,-0.1934844 0.02018,-0.00366 0.05078,-0.061954 0.06803,-0.1295514 0.05807,-0.2276391 0.202792,-0.3757121 0.412975,-0.4225483 0.31442,-0.070064 0.638465,0.2056923 0.613694,0.5222404 C 12.650743,8.7575385 12.466007,8.948321 12.197386,8.967751 12.029738,8.979877 11.92692,8.941112 11.794942,8.8160201 l -0.07868,-0.074579 -0.815986,0.1073115 c -0.448792,0.059022 -0.82392,0.1139997 -0.83362,0.1221732 -0.0097,0.00817 -0.03469,0.096978 -0.05555,0.1973432 C 9.9670613,9.3802564 9.9067245,9.5085446 9.7793784,9.6609629 9.6771338,9.7833369 9.6712539,9.806692 9.7271394,9.868443 c 0.035577,0.03931 0.031167,0.04918 -0.049418,0.110648 -0.1088165,0.083 -0.1265975,0.08357 -0.1776026,0.0057 l -0.040467,-0.06176 -0.1350171,0.05211 c -0.095636,0.03691 -0.1946536,0.05207 -0.3395087,0.05197 C 8.7329172,10.026958 8.5512318,9.963497 8.3326786,9.799213 L 8.1783365,9.6831951 7.6742792,10.013397 c -0.2772313,0.181611 -0.5993652,0.392775 -0.7158531,0.469254 -0.2346739,0.154072 -0.2331938,0.1502 -0.1459622,0.381883 0.057218,0.151969 0.041482,0.432453 -0.03234,0.576439 -0.071945,0.140325 -0.2390883,0.302618 -0.3845608,0.373401 -0.1442766,0.0702 -0.4034285,0.08772 -0.5572146,0.03767 z"
       id="path624" />
    <path
       style="fill:#ffffff;stroke:#04e762;stroke-width:0.00122696"
       d="m 11.033497,12.654355 c -0.350999,-0.111483 -0.537117,-0.513976 -0.402045,-0.869446 0.02679,-0.0705 0.04344,-0.148304 0.03701,-0.172903 -0.01326,-0.05071 0.107915,-0.135723 0.23381,-0.164032 0.04218,-0.0095 0.128449,-0.03055 0.191715,-0.04682 0.282992,-0.07277 0.582276,0.07374 0.731371,0.358019 0.06842,0.130461 0.06433,0.414036 -0.0079,0.550918 -0.06812,0.129014 -0.191069,0.25097 -0.311676,0.309173 -0.10487,0.05061 -0.362986,0.06979 -0.472231,0.03509 z"
       id="path626" />
    <path
       style="fill:#ffffff;stroke:#04e762;stroke-width:0.00122696"
       d="M 6.701821,7.8971354 C 6.5703667,7.857363 6.4047292,7.6759017 6.3684807,7.5319506 6.2397071,7.0205608 6.852744,6.6678149 7.224393,7.0394523 c 0.1406602,0.140656 0.1829599,0.2788534 0.1432694,0.4680744 -0.02176,0.1037418 -0.021938,0.1519587 -6.88e-4,0.1859947 0.022911,0.036684 0.017214,0.062071 -0.028258,0.1259284 -0.06054,0.085018 -0.1013012,0.098613 -0.1499146,0.050002 -0.022559,-0.022558 -0.045718,-0.02281 -0.09355,-0.00101 -0.094682,0.043138 -0.2969503,0.057894 -0.3934373,0.028701 z"
       id="path628" />
    <path
       style="fill:#ffffff;stroke:#04e762;stroke-width:0.000433794"
       d="M 7.5968203,8.1801356 C 7.4808729,8.0936666 7.4788556,8.0911746 7.4991894,8.0594965 7.5142898,8.0359695 7.6160893,7.8982866 7.6298431,7.882786 7.6333632,7.878816 7.6837937,7.9108 7.7419076,7.95386 l 0.1056607,0.078291 -0.015354,0.023818 c -0.019382,0.030062 -0.1402084,0.1910059 -0.1433957,0.1910059 -0.0013,0 -0.042703,-0.030077 -0.091997,-0.066839 z"
       id="path630" />
    <path
       style="fill:#ffffff;stroke:#04e762;stroke-width:0.000433794"
       d="m 9.8104778,10.43087 c -0.02597,-0.03635 -0.057519,-0.08451 -0.070109,-0.107039 l -0.02289,-0.04096 0.1000576,-0.07025 0.1000578,-0.07025 0.031765,0.03059 c 0.036487,0.03513 0.1207178,0.157295 0.1207178,0.175083 0,0.01615 -0.1816443,0.149411 -0.203182,0.149065 -0.00506,-8.2e-5 -0.030447,-0.02989 -0.056418,-0.06623 z"
       id="path632" />
    <path
       style="fill:#ffffff;stroke:#04e762;stroke-width:0.000433794"
       d="m 10.098599,10.832429 c -0.04054,-0.05423 -0.07371,-0.102851 -0.07371,-0.108038 0,-0.009 0.15503,-0.123453 0.195956,-0.144624 0.01819,-0.0094 0.02385,-0.0044 0.07296,0.06434 0.02928,0.041 0.06215,0.08937 0.07305,0.107477 l 0.01982,0.03293 -0.06114,0.04473 c -0.07164,0.05241 -0.144162,0.10179 -0.14948,0.10179 -0.0021,0 -0.03691,-0.04437 -0.07745,-0.09861 z"
       id="path634" />
    <path
       style="fill:#ffffff;stroke:#04e762;stroke-width:0.000433794"
       d="m 10.424911,11.289782 c -0.03017,-0.04074 -0.06236,-0.08756 -0.07154,-0.104052 l -0.01669,-0.02998 0.04152,-0.0378 c 0.0535,-0.0487 0.138944,-0.107162 0.159038,-0.108812 0.01027,-8.47e-4 0.03988,0.03243 0.08604,0.0967 0.03871,0.05389 0.07038,0.101294 0.07038,0.105336 0,0.0073 -0.159261,0.123869 -0.195066,0.142748 -0.01705,0.009 -0.02403,0.0029 -0.07369,-0.06414 z"
       id="path636" />
  </g>
</svg>
