<?xml version="1.0" encoding="UTF-8" standalone="no"?>
<!-- Created with Inkscape (http://www.inkscape.org/) -->

<svg
   width="12.677mm"
   height="12.68mm"
   viewBox="0 0 12.677 12.68"
   version="1.1"
   id="svg555"
   inkscape:version="1.2.2 (b0a8486541, 2022-12-01)"
   sodipodi:docname="reactive-graph-b-selective-yellow.svg"
   xmlns:inkscape="http://www.inkscape.org/namespaces/inkscape"
   xmlns:sodipodi="http://sodipodi.sourceforge.net/DTD/sodipodi-0.dtd"
   xmlns="http://www.w3.org/2000/svg"
   xmlns:svg="http://www.w3.org/2000/svg">
  <sodipodi:namedview
     id="namedview557"
     pagecolor="#505050"
     bordercolor="#ffffff"
     borderopacity="1"
     inkscape:showpageshadow="0"
     inkscape:pageopacity="0"
     inkscape:pagecheckerboard="1"
     inkscape:deskcolor="#505050"
     inkscape:document-units="mm"
     showgrid="false"
     inkscape:zoom="10.35098"
     inkscape:cx="6.134685"
     inkscape:cy="28.596327"
     inkscape:window-width="2490"
     inkscape:window-height="1371"
     inkscape:window-x="0"
     inkscape:window-y="0"
     inkscape:window-maximized="1"
     inkscape:current-layer="layer1" />
  <defs
     id="defs552" />
  <g
     inkscape:label="Ebene 1"
     inkscape:groupmode="layer"
     id="layer1"
     transform="translate(-2.909201,-3.1881725)">
    <path
       style="fill:#f5b700;stroke-width:0.0126747"
       d="m 7.047681,7.9097315 c -0.09481,-0.04112 -0.152187,-0.129035 -0.152187,-0.233204 0,-0.08454 0.02282,-0.135628 0.08603,-0.19267 0.05782,-0.05218 0.111258,-0.06711 0.207144,-0.0579 0.06995,0.0067 0.110359,0.03143 0.168148,0.102834 0.07306,0.09027 0.05752,0.250024 -0.03249,0.333982 -0.0691,0.06446 -0.189258,0.08485 -0.276643,0.04696 z"
       id="path687" />
    <path
       style="fill:#f5b700;stroke-width:0.0126747"
       d="M 9.0755344,10.026613 C 8.9364794,9.9900933 8.8228554,9.9230793 8.7138444,9.8132943 8.597434,9.6960583 8.542036,9.6013443 8.504864,9.4560016 c -0.06523,-0.255061 0.0024,-0.526786 0.179051,-0.719594 0.09318,-0.101692 0.1857584,-0.16378 0.3194364,-0.214237 0.09453,-0.03568 0.117543,-0.03926 0.2559657,-0.03977 0.167449,-6.35e-4 0.225139,0.01237 0.371302,0.08365 0.1213617,0.05918 0.2729569,0.212877 0.3351779,0.339827 0.08749,0.178512 0.108034,0.364846 0.06065,0.550131 -0.03717,0.1453427 -0.09257,0.2400567 -0.2089802,0.3572927 -0.1108097,0.111597 -0.2242307,0.177668 -0.3675207,0.2140927 -0.09409,0.02392 -0.2818677,0.02353 -0.3744077,-7.67e-4 z"
       id="path689" />
    <path
       style="fill:#f5b700;stroke-width:0.0126747"
       d="m 10.504403,7.1308325 c -0.07996,-0.01973 -0.142452,-0.05842 -0.202858,-0.125602 -0.175655,-0.195371 -0.110644,-0.503409 0.129532,-0.6137489 0.08426,-0.03871 0.238834,-0.03754 0.31998,0.0024 0.07595,0.03741 0.152617,0.1140759 0.190027,0.1900259 0.02378,0.04827 0.02925,0.07985 0.02901,0.16724 -2.58e-4,0.09156 -0.0053,0.117367 -0.03387,0.171912 -0.03945,0.07542 -0.119032,0.151245 -0.192419,0.183328 -0.06527,0.02853 -0.17665,0.03989 -0.239398,0.02441 z"
       id="path691" />
    <path
       style="fill:#f5b700;stroke-width:0.0126747"
       d="m 12.359024,8.9780986 c -0.02398,-0.0076 -0.06759,-0.03701 -0.0969,-0.06525 -0.08061,-0.07765 -0.102117,-0.182612 -0.05727,-0.279485 0.05989,-0.129362 0.20434,-0.190446 0.3281,-0.138749 0.176928,0.07391 0.22129,0.288137 0.08655,0.417938 -0.07718,0.07435 -0.164202,0.09625 -0.260474,0.06554 z"
       id="path693" />
    <path
       style="fill:#f5b700;stroke-width:0.0126747"
       d="m 11.386364,12.672849 c -0.149322,-0.05336 -0.244611,-0.180196 -0.254813,-0.339166 -0.0079,-0.123107 0.01895,-0.201192 0.09949,-0.289312 0.08271,-0.0905 0.164762,-0.12669 0.286378,-0.126319 0.115057,3.44e-4 0.2073,0.04238 0.286592,0.130568 0.170716,0.189878 0.109162,0.496158 -0.122225,0.608171 -0.08391,0.04062 -0.207836,0.04736 -0.295418,0.01606 z"
       id="path695" />
    <path
       style="fill:#f5b700;stroke-width:0.0126747"
       d="M 6.202014,11.879401 C 5.9543,11.798741 5.796288,11.541078 5.842091,11.292499 5.906061,10.945305 6.27147,10.75863 6.584388,10.913283 c 0.149931,0.0741 0.246078,0.198759 0.280453,0.363621 0.04808,0.230594 -0.06769,0.463663 -0.283405,0.570551 -0.07573,0.03752 -0.09857,0.04261 -0.205602,0.04578 -0.07697,0.0023 -0.139677,-0.0027 -0.17382,-0.01383 z"
       id="path697" />
  </g>
</svg>
