<?xml version="1.0" encoding="UTF-8" standalone="no"?>
<svg xmlns="http://www.w3.org/2000/svg" width="132.80147" height="153.34592" id="svg2" version="1.1" viewBox="0 0 124.50137 143.7618">
  <defs id="defs4">
    <radialGradient id="radialGradient3071" gradientUnits="userSpaceOnUse" gradientTransform="matrix(0.27229829,0,0,0.31442297,226.19688,164.77166)" cx="66.670067" cy="113.29893" fx="66.670067" fy="113.29893" r="221.89525"/>
    <linearGradient id="linearGradient4056">
      <stop style="stop-color:#828282;stop-opacity:1;" offset="0" id="stop4058"/>
      <stop id="stop4182" offset="1" style="stop-color:#000000;stop-opacity:1;"/>
      <stop style="stop-color:#000000;stop-opacity:1;" offset="1" id="stop4060"/>
    </linearGradient>
  </defs>
  <g id="layer1" transform="translate(-182.09886,-127.8681)">
    <g id="g5129">
      <path style="fill:url(#radialGradient3071);fill-opacity:1;stroke:none;stroke-width:0.27229828" id="path4870-1" d="m 304.77273,235.27993 -60.4217,34.88448 -60.4217,-34.88448 0,-69.76897 60.4217,-34.88448 60.4217,34.88448 z"/>
      <g id="g4202" transform="matrix(0.15241573,0.2639918,-0.2639918,0.15241573,256.84195,259.95721)">
        <path transform="matrix(0.89327487,0,0,0.89327487,-251.09671,-164.47276)" d="M 288.56532,241.41021 66.670066,369.52149 -155.22518,241.41021 l 0,-256.222566 L 66.670068,-142.92364 288.56532,-14.812354 Z" id="path4870" style="fill:none;stroke:#ffffff;stroke-width:13.43371487;stroke-linecap:square;stroke-miterlimit:4;stroke-dasharray:none;stroke-dashoffset:0;stroke-opacity:1"/>
        <path style="fill:none;stroke:#ffffff;stroke-width:17.90259171;stroke-linecap:round;stroke-miterlimit:4;stroke-dasharray:none;stroke-dashoffset:0;stroke-opacity:1" id="path4872" d="M 288.56532,241.41021 66.670066,369.52149 -155.22518,241.41021 l 0,-256.222566 L 66.670068,-142.92364 288.56532,-14.812354 Z" transform="matrix(0.67029399,0,0,0.67029399,-236.23056,-139.20926)"/>
        <path transform="matrix(0.44751829,0,0,0.44751829,-221.37809,-113.96901)" d="M 288.56532,241.41021 66.670066,369.52149 -155.22518,241.41021 l 0,-256.222566 L 66.670068,-142.92364 288.56532,-14.812354 Z" id="path4874" style="fill:none;stroke:#ffffff;stroke-width:26.81454659;stroke-linecap:round;stroke-miterlimit:4;stroke-dasharray:none;stroke-dashoffset:0;stroke-opacity:1"/>
        <path style="fill:none;stroke:#ffffff;stroke-width:53.74269104;stroke-linecap:round;stroke-miterlimit:4;stroke-dasharray:none;stroke-dashoffset:0;stroke-opacity:1" id="path4876" d="M 288.56532,241.41021 66.670066,369.52149 -155.22518,241.41021 l 0,-256.222566 L 66.670068,-142.92364 288.56532,-14.812354 Z" transform="matrix(0.22328617,0,0,0.22328617,-206.42852,-88.56375)"/>
        <path style="fill:none;stroke:#ffffff;stroke-width:12;stroke-linecap:butt;stroke-linejoin:miter;stroke-miterlimit:4;stroke-dasharray:none;stroke-opacity:1" d="m -389.93626,-177.91406 49.88306,28.79999" id="path4878" />
        <path style="fill:none;stroke:#ffffff;stroke-width:12;stroke-linecap:butt;stroke-linejoin:miter;stroke-miterlimit:4;stroke-dasharray:none;stroke-opacity:1" d="m -191.53627,165.48593 v -57.8" id="path4880" />
        <path style="fill:none;stroke:#ffffff;stroke-width:12;stroke-linecap:butt;stroke-linejoin:miter;stroke-miterlimit:4;stroke-dasharray:none;stroke-opacity:1" d="M -42.93627,-149.11407 6.66372,-177.75064" id="path4882" />
        <path style="fill:none;stroke:#ffffff;stroke-width:12;stroke-linecap:butt;stroke-linejoin:miter;stroke-miterlimit:4;stroke-dasharray:none;stroke-opacity:1" d="m -191.53627,-234.71407 v 57.20001" id="path4884" />
        <path style="fill:none;stroke:#ffffff;stroke-width:12;stroke-linecap:butt;stroke-linejoin:miter;stroke-miterlimit:4;stroke-dasharray:none;stroke-opacity:1" d="m -339.92378,22.4765 49.58751,-28.62937" id="path4886" />
        <path style="fill:none;stroke:#ffffff;stroke-width:12;stroke-linecap:butt;stroke-linejoin:miter;stroke-miterlimit:4;stroke-dasharray:none;stroke-opacity:1" d="m -43.13627,22.68593 -49.6,-28.63658" id="path4888" />
        <path style="fill:none;stroke:#ffffff;stroke-width:12;stroke-linecap:butt;stroke-linejoin:miter;stroke-miterlimit:4;stroke-dasharray:none;stroke-opacity:1" d="m -191.53627,51.28593 v -58" id="path4890" />
        <path style="fill:none;stroke:#ffffff;stroke-width:12;stroke-linecap:butt;stroke-linejoin:miter;stroke-miterlimit:4;stroke-dasharray:none;stroke-opacity:1" d="m -290.73627,-120.51407 50,28.86751" id="path4892" />
        <path style="fill:none;stroke:#ffffff;stroke-width:12;stroke-linecap:butt;stroke-linejoin:miter;stroke-miterlimit:4;stroke-dasharray:none;stroke-opacity:1" d="m -142.23627,-91.71407 50.2,-28.98299" id="path4894" />
        <path style="fill:none;stroke:#ffffff;stroke-width:12;stroke-linecap:butt;stroke-linejoin:miter;stroke-miterlimit:4;stroke-dasharray:none;stroke-opacity:1" d="m -240.93627,-34.71406 49.4,-28.52111" id="path4898" />
        <path style="fill:none;stroke:#ffffff;stroke-width:12;stroke-linecap:butt;stroke-linejoin:miter;stroke-miterlimit:4;stroke-dasharray:none;stroke-opacity:1" d="m -191.53627,-120.21406 v 57.5" id="path4900" />
        <path style="fill:none;stroke:#ffffff;stroke-width:12;stroke-linecap:butt;stroke-linejoin:miter;stroke-miterlimit:4;stroke-dasharray:none;stroke-opacity:1" d="m -142.23627,-34.61406 -49.36345,-28.5" id="path4902" />
        <path style="fill:none;stroke:#ffffff;stroke-width:26.81454659;stroke-linecap:round;stroke-miterlimit:4;stroke-dasharray:none;stroke-dashoffset:0;stroke-opacity:1" id="path4908" d="M 288.56532,241.41021 66.670066,369.52149 -155.22518,241.41021 l 0,-256.222566 L 66.670068,-142.92364 288.56532,-14.812354 Z" transform="matrix(0.44751829,0,0,0.44751829,-221.37809,-113.96901)"/>
        <path transform="matrix(0.22328617,0,0,0.22328617,-206.42852,-88.56375)" d="M 288.56532,241.41021 66.670066,369.52149 -155.22518,241.41021 l 0,-256.222566 L 66.670068,-142.92364 288.56532,-14.812354 Z" id="path4910" style="fill:none;stroke:#ffffff;stroke-width:53.74269104;stroke-linecap:round;stroke-miterlimit:4;stroke-dasharray:none;stroke-dashoffset:0;stroke-opacity:1" />
        <path id="path4912" d="m -389.93626,-177.91406 49.88306,28.79999" style="fill:none;stroke:#ffffff;stroke-width:12;stroke-linecap:butt;stroke-linejoin:miter;stroke-miterlimit:4;stroke-dasharray:none;stroke-opacity:1"/>
        <path id="path4914" d="m -191.53627,165.48593 v -57.8" style="fill:none;stroke:#ffffff;stroke-width:12;stroke-linecap:butt;stroke-linejoin:miter;stroke-miterlimit:4;stroke-dasharray:none;stroke-opacity:1"/>
        <path id="path4916" d="M -42.93627,-149.11407 6.66372,-177.75064" style="fill:none;stroke:#ffffff;stroke-width:12;stroke-linecap:butt;stroke-linejoin:miter;stroke-miterlimit:4;stroke-dasharray:none;stroke-opacity:1"/>
        <path id="path4918" d="m -191.53627,-234.71407 v 57.20001" style="fill:none;stroke:#ffffff;stroke-width:12;stroke-linecap:butt;stroke-linejoin:miter;stroke-miterlimit:4;stroke-dasharray:none;stroke-opacity:1"/>
        <path id="path4920" d="m -339.92378,22.4765 49.58751,-28.62937" style="fill:none;stroke:#ffffff;stroke-width:12;stroke-linecap:butt;stroke-linejoin:miter;stroke-miterlimit:4;stroke-dasharray:none;stroke-opacity:1"/>
        <path id="path4922" d="m -43.13627,22.68593 -49.6,-28.63658" style="fill:none;stroke:#ffffff;stroke-width:12;stroke-linecap:butt;stroke-linejoin:miter;stroke-miterlimit:4;stroke-dasharray:none;stroke-opacity:1"/>
        <path id="path4924" d="m -191.53627,51.28593 v -58" style="fill:none;stroke:#ffffff;stroke-width:12;stroke-linecap:butt;stroke-linejoin:miter;stroke-miterlimit:4;stroke-dasharray:none;stroke-opacity:1"/>
        <path id="path4926" d="m -290.73627,-120.51407 50,28.86751" style="fill:none;stroke:#ffffff;stroke-width:12;stroke-linecap:butt;stroke-linejoin:miter;stroke-miterlimit:4;stroke-dasharray:none;stroke-opacity:1"/>
        <path id="path4928" d="m -142.23627,-91.71407 50.2,-28.98299" style="fill:none;stroke:#ffffff;stroke-width:12;stroke-linecap:butt;stroke-linejoin:miter;stroke-miterlimit:4;stroke-dasharray:none;stroke-opacity:1"/>
        <path id="path4932" d="m -240.93627,-34.71406 49.4,-28.52111" style="fill:none;stroke:#ffffff;stroke-width:12;stroke-linecap:butt;stroke-linejoin:miter;stroke-miterlimit:4;stroke-dasharray:none;stroke-opacity:1"/>
        <path id="path4934" d="m -191.53627,-120.21406 v 57.5" style="fill:none;stroke:#ffffff;stroke-width:12;stroke-linecap:butt;stroke-linejoin:miter;stroke-miterlimit:4;stroke-dasharray:none;stroke-opacity:1"/>
        <path id="path4936" d="m -142.23627,-34.61406 -49.36345,-28.5" style="fill:none;stroke:#ffffff;stroke-width:12;stroke-linecap:butt;stroke-linejoin:miter;stroke-miterlimit:4;stroke-dasharray:none;stroke-opacity:1"/>
      </g>
    </g>
  </g>
</svg>
