<?xml version="1.0" encoding="UTF-8" standalone="no"?>
<!-- Created with Inkscape (http://www.inkscape.org/) -->

<svg
   width="12.677305mm"
   height="12.680223mm"
   viewBox="0 0 12.677305 12.680223"
   version="1.1"
   id="svg404"
   inkscape:version="1.2.2 (b0a8486541, 2022-12-01)"
   sodipodi:docname="reactive-graph-a-white.svg"
   xmlns:inkscape="http://www.inkscape.org/namespaces/inkscape"
   xmlns:sodipodi="http://sodipodi.sourceforge.net/DTD/sodipodi-0.dtd"
   xmlns="http://www.w3.org/2000/svg"
   xmlns:svg="http://www.w3.org/2000/svg">
  <sodipodi:namedview
     id="namedview406"
     pagecolor="#505050"
     bordercolor="#ffffff"
     borderopacity="1"
     inkscape:showpageshadow="0"
     inkscape:pageopacity="0"
     inkscape:pagecheckerboard="1"
     inkscape:deskcolor="#505050"
     inkscape:document-units="mm"
     showgrid="false"
     inkscape:zoom="2.587745"
     inkscape:cx="-74.389092"
     inkscape:cy="-5.7965526"
     inkscape:window-width="2490"
     inkscape:window-height="1371"
     inkscape:window-x="0"
     inkscape:window-y="0"
     inkscape:window-maximized="1"
     inkscape:current-layer="layer1" />
  <defs
     id="defs401" />
  <g
     inkscape:label="Ebene 1"
     inkscape:groupmode="layer"
     id="layer1">
    <path
       style="fill:#ffffff;stroke-width:0.0126747"
       d="m 6.0841639,12.674213 c -1.26968,-0.0485 -2.497176,-0.48219 -3.530476,-1.24742 C 1.4361339,10.599173 0.60375208,9.3882638 0.23042407,8.0470033 0.06913507,7.4675433 2.5407046e-4,6.9585533 1.0704649e-6,6.3443233 -1.7792954e-4,5.9078533 0.02206107,5.6368233 0.08997107,5.2479633 c 0.150935,-0.86432 0.48930901,-1.7092896 0.97452083,-2.4335296 0.943882,-1.40887 2.414437,-2.38474994 4.075412,-2.70448989 0.219784,-0.0423 0.492931,-0.0794 0.709781,-0.0965 0.227332,-0.0179 0.747092,-0.0179 0.975948,-1.5e-4 1.186483,0.0922 2.338838,0.52412995 3.2954091,1.23511989 1.122822,0.83457 1.950228,2.0382 2.323851,3.3805096 0.178869,0.64262 0.251442,1.26373 0.228203,1.95301 -0.03985,1.18187 -0.421595,2.33773 -1.101989,3.3366005 -0.825287,1.2115892 -2.0810616,2.1171292 -3.4906841,2.5171292 -0.480121,0.13625 -0.977755,0.21812 -1.41956,0.23355 -0.104566,0.004 -0.224342,0.008 -0.266168,0.0103 -0.04183,0.002 -0.181565,-4e-4 -0.310529,-0.005 z m 2.714535,-2.9272592 c 0.311772,-0.10419 0.5032245,-0.43008 0.442738,-0.7536305 -0.04406,-0.2357 -0.232068,-0.4457 -0.461356,-0.51534 -0.07247,-0.022 -0.110075,-0.0255 -0.222332,-0.0207 -0.115178,0.005 -0.148971,0.0117 -0.229047,0.0456 -0.08331,0.0353 -0.09557,0.0375 -0.108379,0.02 -0.0125,-0.0171 -0.0293,-0.009 -0.124703,0.0589 -0.06064,0.0433 -0.110132,0.0823 -0.109977,0.0867 1.55e-4,0.004 0.01075,0.0216 0.02354,0.0383 0.02285,0.0297 0.02261,0.0315 -0.01335,0.1014 -0.0742,0.14422 -0.09398,0.31895 -0.05377,0.4749 0.06141,0.2381705 0.258631,0.4290505 0.499582,0.4835005 0.105196,0.0238 0.251334,0.0158 0.35705,-0.0196 z M 3.6126069,8.9672533 c 0.278678,-0.0655 0.518507,-0.30228 0.589262,-0.58181 0.02485,-0.0982 0.0245,-0.29257 -6.88e-4,-0.39159 -0.0109,-0.0428 -0.03965,-0.11729 -0.06389,-0.16545 -0.02424,-0.0482 -0.03956,-0.0917 -0.03405,-0.0967 0.01992,-0.0181 1.423267,-0.95011 1.430671,-0.95011 0.0042,0 0.04272,0.0318 0.08564,0.0707 0.221415,0.20063 0.493871,0.29851 0.779107,0.27989 0.134753,-0.009 0.234806,-0.0318 0.339522,-0.0781 l 0.06838,-0.0302 0.04756,0.0685 c 0.02616,0.0377 0.05238,0.0687 0.05827,0.069 0.02478,0.001 0.223627,-0.15433 0.215463,-0.16843 -0.0047,-0.008 -0.02477,-0.0357 -0.04451,-0.0611 -0.01974,-0.0254 -0.0359,-0.0503 -0.0359,-0.0553 0,-0.005 0.02949,-0.0412 0.06553,-0.0806 0.167457,-0.18268 0.26472,-0.4014 0.284956,-0.64078 0.0045,-0.0529 0.01157,-0.096 0.01577,-0.0959 0.0042,1.3e-4 0.376045,-0.0488 0.826309,-0.10874 l 0.818662,-0.10898 0.0749,0.0747 c 0.3030915,0.30243 0.8072195,0.15675 0.8999501,-0.26006 0.06566,-0.29514 -0.1302896,-0.58221 -0.4362486,-0.63911 -0.163086,-0.0303 -0.349387,0.0334 -0.4698375,0.16079 -0.08105,0.0857 -0.127378,0.18351 -0.145062,0.30626 -0.0074,0.0513 -0.01812,0.0932 -0.02385,0.0932 -0.0057,0 -0.356793,0.0457 -0.780136,0.10165 -0.423343,0.0559 -0.779869,0.10297 -0.79228,0.10457 -0.01729,0.002 -0.03235,-0.0213 -0.0644,-0.10065 -0.08031,-0.19882 -0.236862,-0.39185 -0.39893,-0.49189 l -0.07575,-0.0468 0.285963,-0.4774 c 0.15728,-0.26257 0.286766,-0.47862 0.287746,-0.48011 9.79e-4,-10e-4 0.02952,0.006 0.06341,0.0159 0.07098,0.0214 0.253059,0.024 0.336089,0.005 0.169175,-0.039 0.350924,-0.182 0.429768,-0.3381896 0.17936,-0.35531 0.0271,-0.77273 -0.337962,-0.92649 -0.363697,-0.15318 -0.795452,0.0631 -0.895899,0.4487 -0.05189,0.19921 -3.97e-4,0.43734 0.126694,0.5858096 l 0.04556,0.0532 -0.301023,0.50187 -0.301024,0.50186 -0.07682,-0.0105 c -0.309692,-0.0422 -0.598415,0.035 -0.835555,0.22344 -0.05322,0.0423 -0.10348,0.0876 -0.1117,0.10081 -0.01411,0.0226 -0.01876,0.0211 -0.08299,-0.0274 -0.03881,-0.0293 -0.07247,-0.0464 -0.07835,-0.0399 -0.05477,0.0609 -0.154799,0.21117 -0.145763,0.219 0.0063,0.005 0.03776,0.0309 0.06989,0.0565 l 0.05842,0.0466 -0.04152,0.11084 c -0.0929,0.248 -0.0886,0.50325 0.0127,0.75404 l 0.03005,0.0744 -0.747561,0.49842 -0.74756,0.49841 -0.07195,-0.0433 c -0.37748,-0.22737 -0.903228,-0.0659 -1.103783,0.33892 -0.262954,0.53081 0.117262,1.1486 0.708627,1.15141 0.05925,2.9e-4 0.144808,-0.008 0.19012,-0.0188 z m 4.340761,-0.58988 0.108036,-0.0773 -0.06437,-0.0907 c -0.0354,-0.0499 -0.07207,-0.10133 -0.08147,-0.11436 -0.01614,-0.0224 -0.02325,-0.0193 -0.126546,0.0553 -0.07415,0.0535 -0.107167,0.0849 -0.102379,0.0974 0.01122,0.0292 0.139314,0.2062 0.149497,0.20653 0.0051,1.7e-4 0.05782,-0.0345 0.117238,-0.077 z m -0.309383,-0.43014 c 0.05481,-0.0381 0.09986,-0.074 0.100106,-0.0797 4.49e-4,-0.0101 -0.09956,-0.15771 -0.13669,-0.20172 -0.01731,-0.0205 -0.0242,-0.018 -0.102313,0.0371 -0.04606,0.0325 -0.09639,0.0688 -0.111841,0.0805 l -0.02809,0.0214 0.07784,0.10973 c 0.04281,0.0603 0.08313,0.10797 0.08959,0.10582 0.0065,-0.002 0.05659,-0.0351 0.1114,-0.0732 z m -0.316836,-0.42478 c 0.05488,-0.0387 0.102665,-0.075 0.106181,-0.0807 0.01096,-0.0177 -0.145093,-0.23071 -0.161727,-0.22071 -0.01967,0.0118 -0.189223,0.13239 -0.203549,0.14474 -0.01003,0.009 0.136752,0.22696 0.152593,0.22696 0.0037,0 0.05162,-0.0317 0.106502,-0.0703 z m -2.195711,-2.29511 c 0.04414,-0.0596 0.07836,-0.10968 0.07605,-0.1114 -0.0023,-0.002 -0.05093,-0.0383 -0.108028,-0.0813 -0.0571,-0.043 -0.106315,-0.0782 -0.109367,-0.0782 -0.0077,0 -0.147502,0.18664 -0.155538,0.20758 -0.004,0.0105 0.03345,0.0467 0.09788,0.0948 0.05741,0.0428 0.107609,0.0776 0.111563,0.0773 0.004,-2.9e-4 0.0433,-0.0493 0.08745,-0.10881 z m -0.704321,-0.25074 0.08572,-0.0347 0.04919,0.039 c 0.02705,0.0214 0.05196,0.039 0.05534,0.039 0.0059,0 0.132822,-0.16552 0.154495,-0.20155 0.0075,-0.0124 -0.0017,-0.0279 -0.03054,-0.0514 l -0.04123,-0.0336 0.02662,-0.0862 c 0.108233,-0.35042 -0.141359,-0.6918896 -0.505717,-0.6918896 -0.156425,0 -0.28164,0.0538 -0.387795,0.1666196 -0.108698,0.11553 -0.150674,0.23337 -0.142,0.39863 0.0047,0.0891 0.0126,0.11929 0.05238,0.19979 0.06929,0.14019 0.186615,0.23816 0.33799,0.28222 0.09124,0.0266 0.244479,0.0151 0.345548,-0.0258 z"
       id="path685"
       clip-path="none" />
  </g>
</svg>
